<?xml version="1.0" encoding="utf-8"?>
<!-- Generator: Adobe Illustrator 19.0.0, SVG Export Plug-In . SVG Version: 6.00 Build 0)  -->
<svg version="1.1" id="Layer_1" xmlns="http://www.w3.org/2000/svg" xmlns:xlink="http://www.w3.org/1999/xlink" x="0px" y="0px"
	 viewBox="276 -208.6 1511.1 976.6" style="enable-background:new 276 -208.6 1511.1 976.6;" xml:space="preserve">
<style type="text/css">
	.st0{fill:#FFFFFF;}
</style>
<g>
	<path class="st0" d="M796.6,662.9c-16-1.9-31.1,1.4-45,10.1c-1.8,1.1-3.5,2.6-5.4,3.5c-3.2,1.6-5.8-0.2-5.6-3.5
		c0.5-7.9-6.2-12.6-13.4-8.8c-4.5,2.4-8.3,6.6-11.9,10.3c-3.3,3.5-5.9,7.6-9.2,11.2c-7,7.6-15.7,10.3-25.8,8.1
		c-17.6-3.7-19.4-3.4-28.7,11.6c-8.3,13.4-20,17.2-34.7,14.4c-7.2-1.4-14.3-3.2-21.4-4.8c-11.4-2.7-21.4-0.5-29.7,8.2
		c-3.6,3.7-7.3,7.3-11.3,10.6c-10.6,8.6-19.9,8.3-29.9-0.9c-3.3-3-6-6.7-9-10c-2.4-2.6-4.6-5.3-7.3-7.4c-4.2-3.3-8.7-3.2-12.7,0.3
		c-2.6,2.3-4.8,5.1-7.2,7.6c-12.1,13.2-27.2,17.1-44.5,14.5c-3.8-0.6-6.2-2.8-7.6-6.4c-14.3-37.9-13.5-74.9,6.1-110.9
		c0.4-0.7,0.8-1.5,1.1-2.2c6.3-12.7,4.7-18.3-8.5-23.2c-15.7-5.8-20.7-18.6-23.8-33.1c-1.8-8.5-3.4-17-5.9-25.2
		c-2.7-9-8.5-15.8-17.8-18c-29.1-7-49.5-25.7-66.7-48.8c-6.9-9.2-13.8-18.4-19.5-28.4c-10-17.5-7-31.7,8.3-44.8
		c1.9-1.6,3.9-3.1,5.6-4.9c2.5-2.7,5.2-5.3,7.1-8.4c4.3-7.1,5.5-14.1-4.4-19.7c-10.5-6-14.8-15.4-13.5-27.3
		c0.4-3.6,1.4-7.2,2.5-10.7c2-6.3,4.4-12.6,6.5-18.9c2.6-7.6,2.6-15.3,0.6-23.1c-6.7-26.2,14.6-48,41.3-42.1
		c13.2,2.9,20.1,0.5,25.3-11.9c7.1-16.9,18.9-26,36.8-30c20.1-4.5,27.9-21.9,20.9-42.6c-4.4-13.1-13.5-22.5-24.1-30.5
		c-12.9-9.7-26.8-18.2-39.2-28.5c-43.7-36-70.1-82.3-79.9-137.9c-2.2-12.4-1.9-25.2-3.6-37.7c-0.9-6.6,1.3-11.5,4.4-16.7
		c10.5-17,20.1-34.5,31.3-51.1c12.4-18.4,28.2-33.4,49.7-41c17.3-6.1,34.6-6.7,51.4,1.7c17.7,8.8,27.3,29.4,22.9,48.2
		c-2.6,11.3-10.3,17.9-20.4,22.3c-4.4,1.9-9,3.6-13.3,5.8c-12.5,6.4-14.5,18-4.8,28.2c9.3,9.8,20.6,13.2,33.7,9.7
		c6.9-1.8,13.9-3.9,20.3-6.8c32.7-15.2,66.4-16.4,100.4-6.1c25.9,7.9,51.3,17.5,76.9,26.5c24.7,8.7,49.7,16.1,76.3,16.5
		c20.8,0.3,41.1-3.5,61.4-6.9c18.5-3.1,37.2-6.4,55.9-7.5c27.4-1.7,53.3,6,78.9,15.3c23.4,8.5,46.7,17.7,70.6,24.7
		c25.8,7.6,51.9,7.9,77.1-3.8c16.7-7.8,31.1-18.8,43.8-31.9c15.4-15.7,30-32.2,45-48.2c33.9-36.2,76-57.6,124-68.1
		c43.7-9.6,87.6-9.1,131.6-2.6c49.8,7.4,97.7,21.9,145.4,37.1c16.3,5.2,32.5,10.9,48.4,17.2c19.2,7.6,34.6,20.2,45.8,37.9
		c3.8,6,8.2,11.8,13,17c10.4,11.3,24.5,14.7,38.9,17.4c11.1,2.1,22.4,3.8,33.1,7.3c25.6,8.2,43.4,34.8,42.4,61.6
		c-1.1,27-18.6,49.3-44.3,56.5c-12.6,3.5-25.1,2.1-37.7,0.3c-36.9-5.2-65.4,11.3-79.8,46c-7.7,18.6-10.4,38.2-10.2,58.2
		c0.2,22.6,1.5,45.3,1.7,67.9c0.1,8.1-1,16.3-2.5,24.3c-3.1,17.4-13,30.3-28.5,38.3c-11.2,5.8-23.1,10.2-34.6,15.4
		c-4.2,1.9-8.3,4.3-12,7.1c-15.2,11.1-19.8,28.4-12.6,46.7c5,12.7,12.8,23.5,23.4,31.9c12.1,9.6,24.9,18.5,37.3,27.7
		c11.7,8.7,22.9,17.9,30.6,30.5c8.9,14.6,11.8,30.3,7.3,47c-1.9,7.1-4.5,8.4-11.6,9.4c-19.7,2.7-38.8,8.2-56.8,16.5
		c-12.2,5.6-24,12.2-35.8,18.8c-7.1,3.9-6.7,3.9-11.8-2.6c-9.4-11.8-18.6-24-29.1-34.8c-14.9-15.1-33.2-23.1-55-21
		c-13.4,1.3-25.5,6.1-37.1,12.6c-16.7,9.4-33,19.4-49.9,28.3c-15.2,8.1-31.4,12.7-49,10.4c-6.6-0.8-13.4,0.3-20.1,0.3
		c-6.3,0-10.6,3.8-13.1,8.6c-3.7,7-6.4,14.6-9.3,21.9c-2.8,6.9-4.5,14.4-8.3,20.8c-3,5.1-8.1,9.1-12.7,13c-3.2,2.7-5.9,1.6-7.6-2.6
		c-3.3-8.4-8.6-15.1-17.7-17.7c-8.3-2.4-15.6-0.1-21.2,6.4c-5.3,6.2-5.3,13.4-1.4,20c3.4,5.8,7.8,11.2,12,16.5
		c6.2,7.8,13.1,15.4,14.8,25.7c3.5,20.5-5.9,35.6-21.3,47.4c-14,10.7-30.8,14.6-47.9,17.2c-6.7,1.1-13.6,2.5-20.3,2.3
		c-7.2-0.2-15.1-0.4-21.3-3.4c-17.3-8.3-34.3-8-51.9-1.9c-11.9,4.2-23.8,8.5-35.9,12.4c-12.9,4.1-26,5.5-39.3,1.7
		c-10.1-2.9-17.7-9.6-25.2-16.5c-6.6-6.1-13.1-12.3-20.3-17.7c-9.1-6.8-19.3-8.7-30.1-3.5c-6,2.9-12.2,3-18.5,0.8
		c-15.7-5.6-31.5-10.8-46.9-17c-9-3.6-15.8-10.2-17.4-20.3C796,672.2,796.6,668,796.6,662.9z M1505.8,562.3c0,0,0.8-0.3,1.5-0.8
		c28.8-17.9,59.7-30,93.2-35.2c3.6-0.6,5.5-2.6,6.5-6c3-10.4,1.5-20.4-2.5-30.3c-6.3-15.5-17.8-26.8-30.9-36.5
		c-11.5-8.6-23.4-16.5-34.9-25.1c-12.3-9.2-22.3-20.5-28.5-34.8c-12.4-28.4-3.4-52.8,24.6-65.9c10.2-4.8,20.9-8.8,31.2-13.3
		c15.4-6.8,26.1-18,29.7-34.7c1.7-7.7,2.6-15.8,2.5-23.8c-0.3-23.7-1.8-47.3-1.9-70.9c-0.1-27.6,5.2-54,21.7-77.1
		c16.7-23.4,38.7-36.1,68.2-33.4c7.6,0.7,15.2,1.6,22.9,2.4c37.4,4.2,60.6-26.6,59.9-54c-0.6-24.6-19.1-47.2-44.3-53.5
		c-10.3-2.6-20.9-4.3-31.4-6.1c-18.8-3.1-34.2-11.7-44.9-27.8c-1.6-2.4-3.4-4.5-4.9-6.9c-12.3-20.1-30.4-32.8-52.3-40.5
		c-45.7-16.1-91.8-30.8-139-41.6c-49.2-11.3-98.8-17.1-149.2-10.3c-37.6,5.1-72.8,16.8-104.9,37.4c-22.6,14.5-40.6,33.8-58.5,53.4
		c-13.1,14.4-26.5,28.6-41,41.5c-24.5,21.9-53.5,31.8-86.6,28.6c-17.2-1.7-33.7-6-50-11.7c-23.6-8.2-47-17-70.7-24.7
		c-21.9-7.1-44.5-10.5-67.5-7.3c-16.8,2.4-33.5,5.3-50.2,8.3c-21.5,3.9-43.1,6.7-65.1,4.9c-24.8-2-48.2-9.8-71.5-17.9
		c-25.3-8.8-50.4-18.3-76.1-25.8c-27.1-7.9-54.6-8.1-81.3,3.3c-7.3,3.1-14.9,5.7-22.5,8.2c-12.8,4.2-25.8,5.9-38.4-0.2
		c-11.3-5.5-19.6-14-19.5-27.3c0.1-12.9,9.5-19.4,20.2-24.2c3.6-1.6,7.4-3.1,11-4.8c10.4-4.9,15-13.4,14.4-24.6
		c-0.5-11-5-20.4-13.8-27.1c-12.2-9.3-26.2-11.1-40.8-8.4c-21.5,4.1-37.5,16.6-51.1,32.9c-16.1,19.3-27.2,41.8-39.3,63.6
		c-0.8,1.5-0.9,3.5-0.8,5.3c0.6,10.6,0.5,21.4,2.1,31.9c8.7,58.7,35.7,107.2,82.3,144.3c13,10.4,27.1,19.3,40.2,29.6
		c11.4,8.9,19.8,20.1,22.9,34.7c4.8,22.5-4.3,40.9-25.4,46.1c-16.8,4.2-28.3,12.4-34.9,28.5c-3.5,8.6-10.4,14.5-20.4,15.7
		c-2.5,0.3-4.4,2.7-7.7,0.9c-10.6-5.8-20.7-3.4-29.7,3.8c-8.8,7.1-11.1,16.3-7.4,26.9c3.7,10.7,2.4,21-1.7,31.2
		c-1.9,4.8-3.9,9.5-5.5,14.4c-5,15.3-2.8,21.8,10,31.3c0.4,0.3,0.8,0.6,1.2,0.9c7.3,5.7,9.3,12.4,6.6,21.2
		c-2.2,7.1-7,12.4-12.4,17.2c-3.4,3-6.8,5.9-9.9,9.1c-6,6.1-7.6,13.6-5.2,21.7c1.3,4.3,2.9,8.7,5.4,12.3c9.7,13.5,19.3,27.1,30,39.8
		c11.7,13.8,26.3,24.3,44.2,28.7c18.7,4.6,28.4,16.7,31.7,34.9c1.4,7.7,3,15.4,4.9,23c2.5,10.3,8.4,18,18.8,21.7
		c2.2,0.8,4.3,1.8,6.3,2.9c7.5,4.3,10.7,11.2,8.3,19.4c-1.4,4.8-3.5,9.4-5.8,13.8c-15.7,30.4-18.1,61.9-7.7,94.4
		c3.6,11.1,6.5,12.8,18.1,11.2c0.5-0.1,1-0.2,1.5-0.3c11.4-2,19.9-8.7,27.5-17c10.4-11.3,20.9-10.9,31,0.7
		c3.6,4.1,6.8,8.6,10.7,12.5c7,7.1,14.1,7.4,21.7,1c3.7-3.1,7-6.7,10.3-10.2c8.2-8.5,18.1-12.6,29.8-10.8c9,1.4,17.8,3.9,26.8,5.7
		c13.6,2.7,20.9-0.4,28.5-12c1.5-2.2,2.9-4.4,4.4-6.6c6-8.8,14.2-11.5,24.4-9.4c2.8,0.6,5.6,1.1,8.3,1.8c6.4,1.6,12.1,0,16.5-4.6
		c4.8-5.1,9.1-10.6,13.6-15.9c11.8-13.9,24.2-14,35.8,0c1.6-0.8,3.2-1.7,4.8-2.5c15.7-8,32.2-10.2,49.5-7.1c4.8,0.9,5.8,3,3.4,6.9
		c-4.5,7.4-4.6,12.9,1.7,18.8c4.7,4.5,10.5,8.4,16.4,10.8c11,4.6,22.7,7.7,33.9,11.8c7.4,2.7,14.4,3.2,21.8,0
		c9.5-4.2,19.1-3.3,27.9,1.9c6.8,4,13,9.2,19.2,14.2c3.2,2.6,6.1,5.7,9,8.7c14.7,15.2,32.3,19.2,52.2,13.2
		c12.9-3.9,25.5-8.7,38.2-13.1c19.6-6.7,38.9-8.1,58.2,1.6c4.7,2.3,10.8,3.6,15.9,2.9c15.8-2.2,31.6-4.6,47-8.8
		c8.2-2.2,16.2-7.1,23-12.4c15.6-12.2,23.8-33.7,5.8-54.8c-1.3-1.5-2.6-3-3.8-4.6c-3.9-5.1-8.4-10-11.7-15.5
		c-10.9-18.7-0.3-39,21-40.2c11.7-0.7,20.2,5.6,26.9,14.6c1.4,1.9,2.6,4,4.1,6.3c7.5-5.4,10.5-12.9,12.9-20.7
		c2-6.4,3.7-12.8,5.8-19.1c4.2-12.1,13.2-20.3,22.7-28.2c3.5-2.9,6.6-7.7,10.7-0.7c0.4,0.7,1.7,1,2.7,1.2c6,1.1,12,2.8,18.1,3.1
		c13.8,0.6,26.8-3.5,38.7-10c15.5-8.4,30.5-17.7,45.8-26.5c14.3-8.2,29.2-14.7,45.9-15.5c22.4-1.1,41,8.2,56.5,23.3
		C1484.3,537,1494.5,549.7,1505.8,562.3z"/>
	<path class="st0" d="M555.3,545.4c-0.5-6-1-10.7-1.4-15.3c-0.4-0.1-0.7-0.3-1-0.3c-2.9-0.5-5.8-1.1-8.7-1.6c1.2-2.6,2-5.4,3.6-7.6
		c2-2.8,4.3-5.7,7.2-7.6c5.5-3.6,6.6-8.4,6.3-14.4c-0.4-7-0.1-14-0.1-21.4c-0.8,0.6-1.2,0.8-1.6,1.1c-1.6,1.1-3.2,2.2-4.8,3.3
		c-1-1.7-2.7-3.3-2.8-5.1c-1-16.2,4.3-30.5,14.2-43.1c7.3-9.2,16.4-16.1,27.4-20.2c9.1-3.5,18.4-4.6,28.4-0.3c0-3.6,0-6.7,0-9.8
		c0-10.1,2.3-19.1,10.6-25.9c1-0.8,1.5-2.9,1.5-4.3c-0.1-3.7-0.3-7.4-1.2-10.9c-4.2-15.7,1.6-29.3,9.1-42.4
		c7.8-13.6,19.2-23.5,33.9-28.9c8.8-3.2,18.2-5,28-7.6c-0.4-5.3-0.7-11.2-1.2-17.2c-0.1-2-0.4-4-0.6-6c-0.3-2.7-0.8-5.8,3-6.2
		c3.7-0.4,4,2.7,4.3,5.4c0.8,7.8,1.5,15.6,2.3,24.3c5.9,0,12.1-0.4,18.1,0.1c23.7,1.7,41.4,12.4,51.1,34.8c1.1,2.6,1.7,5.4,2.5,8.1
		c0.8,2.8,0.3,6.4,4.9,6.7c0.8,0.1,1.8,3.3,1.8,5.1c0.1,11.5-0.2,23,0,34.5c0.2,13,0.8,26,1.1,38.2c8.8,0.5,17.3,0.1,25.5,1.6
		c19.7,3.9,36.8,21.4,39.2,41.2c1.2,10.3-0.7,20.9-1.2,31.4c-0.1,1.2-0.2,2.3-0.3,3.5c-1.2,9.1-1,16.7,8.3,23.1
		c8,5.4,12.8,14.4,11.3,25.2c-0.6,4,1.2,5.7,5,6.1c1.8,0.2,3.6,0.9,5.3,1.3c4,0.9,8.3,1.3,5.9,7.6c-0.5,1.5,1.5,3.9,2.4,5.8
		c2.4,5.1,1.1,7.1-4.6,7c-1.8,0-3.6,0-5.7,0c0.4,5.4,1.2,10.4,1.2,15.3c0,12.6-0.3,25.3-0.6,37.9c-0.1,4.1-2.1,5.7-6.5,5.3
		c-40.3-3.8-80.5-2.6-120.8-0.2c-58.7,3.5-117.2,10-176.1,8.1c-23.6-0.8-47.2-2.9-70.8-4.8c-11.8-0.9-14.7-4.3-15.7-15.9
		c-1-11.8-1.7-23.6-2.8-35.4c-0.2-1.8-1.9-3.5-2.4-5.3c-0.6-1.8-1.4-4.3-0.7-5.6c3.8-6.2,8-12.3,12.3-18.2c0.8-1.1,2.8-2,4.2-1.9
		c4.9,0.2,9.8,1.2,14.7,1.3C530.7,545.6,543.1,545.4,555.3,545.4z M875.5,615.5c1.9-16,1.2-31.4-0.3-46.8c-0.4-4-2-4.9-5.6-5
		c-19.5-0.6-39-1.5-58.4-2c-95-2.5-189.9-0.4-284.7,6c-9.6,0.6-19.2,1.5-29.2,2.2c1.1,14.8,2.1,29.2,3.2,43.6
		c0.3,3.4,2.5,4.8,5.7,5.1c12.8,1.2,25.5,2.8,38.3,3.7c54.2,3.7,108.2,0.6,162.3-3.3c50.7-3.7,101.4-7.4,152.3-4.5
		C864.3,614.7,869.6,615.1,875.5,615.5z M781.3,429.7c-4.8,0.4-10.2-0.1-15,1.4c-4.2,1.3-5.8,0.1-8.2-2.9c-2.8-3.4-6.1-6.7-9.9-8.9
		c-9-5.3-20-2-24.6,6.6c-0.9,1.7-2.7,2.9-4.1,4.3c-1.4-1.6-3.4-3-4.2-4.8c-3.4-7.6-8.8-12.5-17.3-13.2c-10.2-0.8-17.9,6-20.6,17.2
		c-0.4,1.8-1.9,3.9-3.4,4.8c-1.1,0.6-3.7-0.2-4.8-1.2c-8.6-7.7-19.5-7.8-28.2-0.2c-2.5,2.2-5.1,4.4-8.1,5.7
		c-3.2,1.3-3.9,3.2-4.1,6.4c-1.4,23.6-3,47.2-4.6,70.8c-0.5,8-1,16.1-1.5,24.5c4.6-0.5,8.3-0.8,11.7-1.2c-0.9-9.2-1.8-17.7-2.6-26.3
		c-0.1-0.9,0.1-2.1,0.6-2.8c3.7-5.5,7.5-10.9,11.1-16.4c8.6-13,20-22.3,35.6-25.5c16.4-3.4,32.8-2.3,49.1,1.1
		c13.5,2.9,24.5,9.4,30.7,22.4c0.3,0.7,0.9,1.7,1.6,1.8c4.2,0.9,3.7,3.9,3.6,7c-0.1,10.1,0,20.2,0,30.8c7.7,0,16.1,0,23.6,0
		C785.6,497.4,783.5,463.9,781.3,429.7z M782,380.6c0.3-1.6,0.7-2.4,0.6-3.2c-0.8-11.8-1.7-23.5-2.6-35.3c-0.1-0.7-0.6-1.6-1.2-1.9
		c-4.5-2.8-9.1-5.2-14.5-2.4c-4.2,2.1-6.5,1.3-7.4-3.5c-0.9-4.6-4-7.6-8.2-9.4c-7.9-3.5-16.8,0.5-22.4,9.9c-3.6,6.1-4.5,6.2-9.4,1.4
		c-12.2-11.9-29.2-9.9-38.4,4.5c-3.8,6-4.6,6.1-9.4,1.1c-1-1.1-2.2-2.1-3.4-2.9c-5.6-3.5-11.7-3.9-16.9-0.1
		c-4.8,3.5-10.7,7-9.6,14.8c0.9,6.3,1.7,12.5,2.2,18.8c0.3,3.6,2,4.6,5.2,5.1c29.4,4.2,58.9,5.9,88.6,5.4
		C750.8,382.5,766.4,381.3,782,380.6z M883.2,557.1c-2.2-6.1-2.1-6.1-7-7.3c-30.9-7.3-62.3-10.6-94-11.3c-47.4-1-94.5,3.3-141.6,7.4
		c-43,3.8-86,7.6-129.2,6.6c-7.8-0.2-10.9,3.5-13.8,9.9C626.1,552.4,754.3,550.7,883.2,557.1z M775.9,329.5c-1.2-15-16-31.8-32-36.1
		c-16.6-4.5-33.3-3.4-50-0.5c-13.1,2.3-24.7,7.6-34.5,16.7c-7.2,6.6-13.2,15.4-14.7,22.2c10.2-5.7,19.6-4,28.4,2.9
		c5.9-7.7,13.1-12.4,22.4-13.5c9.4-1.1,17.6,1.9,25,7.6c14.9-18.9,34.4-15.3,43.1,0.6C767.6,329.5,771.5,329.5,775.9,329.5z
		 M756.3,530.3c0-5.7,0.1-11.8-0.1-17.9c0-1.1-1.6-2.6-2.8-3.1c-15.6-6.1-32-6.3-48.2-4.3c-20.7,2.6-41.3,6.7-61.9,10.4
		c-1.2,0.2-2.9,2.3-2.8,3.5c0.2,6.4,0.9,12.8,1.4,19C680.2,535.4,717.5,532.9,756.3,530.3z M643.7,508c9.5-1.8,18-3.3,26.6-5.1
		c25.7-5.3,51.5-8.6,77.7-3.4c1.4,0.3,3.9,0.1,4.2-0.6c0.6-1.4,0.5-3.5-0.1-4.9c-3.6-7.8-10.1-12.7-18-15.6
		c-12.9-4.9-26.4-5-39.9-5.1C669.9,473.2,655,486.9,643.7,508z M846.3,498.7c0.2-2.4,0.5-5.4,0.7-8.3c0.6-8.8,1.1-17.6,1.7-26.4
		c0.5-7.1-0.9-9.3-7.9-10.5c-5.7-1-10.9,0.2-15.2,4.4c-4.5,4.4-5.3,4.3-8.7-1.1c-4.2-6.7-12.4-9.3-19.6-6.2c-2.8,1.2-4.2,2.7-3.8,6
		c0.6,5.3,0.7,10.6,1.1,15.9c0.5,7.6,1.1,15.1,1.6,21.8c8.8,0,17-0.6,25,0.2C829.3,495.2,837.4,497.2,846.3,498.7z M621.5,454.6
		c0.3-8.5,0.6-16.8,0.8-25c0.2-8.9-2.3-11.6-11.3-12.2c-2.3-0.2-4.7,0-6.9,0.4c-9.8,1.7-18.2,6.3-25.5,12.9
		c-10,9.1-16.3,20.3-18.8,34.6c8.9-5.9,17.6-7.8,27.1-4.5c0.8,0.3,2.4-0.5,3.2-1.3C601.5,448.9,607.5,447.8,621.5,454.6z
		 M650.2,414.2c7.6,2.5,14.6,4.9,21.8,7.3c8.4-18,31.4-24.8,48.2-4.1c12.6-9.2,17-9.9,33-5.1c-3.4-4.2-6.9-8.3-11-11.7
		c-10.6-8.7-23.2-11-36.6-10.5C683.9,390.7,665.6,399.3,650.2,414.2z M618.9,489.6c0.5-6.7,0.9-13,1.4-19.2
		c0.7-8.5-7.9-15.3-15.8-11.8c-4.2,1.9-7.6,5.6-11,8.9c-2.3,2.3-4.1,3.5-7.2,1.6c-4.8-2.8-10.1-3.3-15.3-1.2
		c-1.2,0.5-2.8,1.8-2.8,2.8c-0.2,10.2-0.1,20.4-0.1,31.9C584.7,492.9,601.1,489,618.9,489.6z M845.8,446.6
		c-7.5-21-30.4-32.2-51.4-27.2c-1,0.2-2.5,1.5-2.5,2.3c0.1,7.4,0.5,14.7,0.9,22.6c12.1-5.3,21.5-1.9,29.2,6.7
		C830.8,445.9,833.3,445.5,845.8,446.6z M616.6,521.1c-18.6,2.5-36.5,4.9-54.4,7.4c-0.4,5.6-0.7,10.7-1.1,16.2
		c17.8-1.3,35.8-2.5,54.2-3.8C615.7,534.1,616.1,528,616.6,521.1z M862.1,522c-11.7-18.7-40.8-23.9-65.4-18.7
		c0.4,5.3,0.8,10.7,1.1,15.1C819.8,519.7,841.1,520.9,862.1,522z M782.3,387.7c-13.6,0.9-27,1.7-40.8,2.6c0.6,0.8,0.9,1.2,1.2,1.4
		c10.7,7.2,18.3,16.7,22.3,29.1c0.3,1,1.7,2.3,2.5,2.3c4.9-0.1,9.8-0.6,14.7-1C782.3,410.3,782.3,399.1,782.3,387.7z M629.9,425.4
		c0.4,0.4,0.8,0.7,1.2,1.1c11.9-15.7,24.5-30.6,43.7-37.8c-1.6-0.8-2.8-1-4-1.1c-9.4-1.1-18.8-2.2-28.2-3.4c-7.2-1-8.9-0.2-11.4,6.7
		c-0.6,1.7-1.2,3.5-1.3,5.3C629.9,405.8,629.9,415.6,629.9,425.4z M557.8,521.6c19.6-2.6,39.3-5.2,59.4-7.9
		c0.3-5.4,0.7-10.7,1.1-16.5C594,496.3,574.1,504.2,557.8,521.6z M799.6,526.3c-1.7,5.4,0.7,5.7,3.7,5.9c12.9,1.2,25.8,2.3,38.6,3.8
		c8,0.9,15.9,2.5,23.9,3.7c1.1-8,1.1-8.1-6.2-9.3c-5.9-1-11.8-2.2-17.7-2.5C827.7,527.1,813.4,526.8,799.6,526.3z"/>
	<path class="st0" d="M1335.2,3.6c-2-12.3,4.6-20.9,12-28.9c6.9-7.4,3.8-16.6,5.3-25c0.2-1.1-0.5-2.5,0-3.4c0.7-1.3,2-2.9,3.1-3
		c1.2-0.1,3.4,1.4,3.6,2.4c0.5,3.4,0.1,6.9,0.4,10.4c0.2,2.9,0.3,6,1.5,8.4c2.1,4.3,4.9,8.3,7.6,12.3c6,8.8,9.8,18.1,6.4,29.1
		c0.5,0.3,1,0.5,1.5,0.8c0.7-1,2.1-2.1,2.1-3.1c0-9.7-0.2-19.3-0.5-29c0-0.9-0.4-2-1.1-2.6c-7.9-7.3-3.6-21.2,3-26.8
		c3.2-2.7,6.7-4.9,10-7.4c2.9-2.2,5.8-4.4,8.4-7c3.2-3.2,4.8-7,3.9-11.8c-0.7-4.3-1.1-8.6-1.1-12.9c0-1.5,1.7-3,2.7-4.5
		c1.5,1.2,3.1,2.4,4.5,3.7c0.4,0.3,0.3,1.3,0.2,1.9c-1.3,14.5,7.8,22.8,17.9,30.7c4.2,3.3,8.7,6.2,12.4,10
		c6.9,7.1,7.1,14.9,1.8,23.1c-0.7,1-1.3,2.4-1.3,3.6c0.2,12.8,0.6,25.6,0.9,38.5c0,0.3,0.3,0.6,0.4,0.9c4.6,0,9.2,0,14.8,0
		c-1.6-7.1,1.4-13.7-2.5-20.5c-1.8-3.1-1.6-8.2-0.3-11.8c1.5-4.2,4.7-8,7.7-11.4c6.5-7.5,11.8-15.3,10-26c-0.3-1.8-0.5-3.8,0.1-5.4
		c0.6-1.7,2.3-3,3.5-4.5c1.2,1.5,3,2.8,3.5,4.5c1.1,3.9,1.3,8.1,2.4,12c2.2,7.8,6.9,13.9,13.4,18.7c3.6,2.6,7.3,5.4,10.2,8.7
		c4.4,5,4.2,10.6,0.5,16c-0.6,0.9-1.4,2-1.5,3c-0.2,4.6-0.1,9.2-0.1,14.5c4.1,0,7.4-0.2,10.6,0c6.5,0.4,8.4,1.8,9,8.3
		c1.1,11.3,1.9,22.6,2.3,33.9c1,27.1,1.6,54.3,2.4,81.4c0.1,2.5,0.1,5,0.4,7.5c0.7,5.5,0.1,6.5-5.6,6.5c-25.5,0.4-51,0.7-76.5,1.1
		c-61.1,0.9-122.1,1.8-183.2,2.7c-1.8,0-4,0.6-5.4-0.2c-1.5-0.8-3.5-2.9-3.4-4.3c0.4-6.2,1.9-12.4,2.2-18.6
		c2.2-51.8,4.3-103.5,6.2-155.3c0.1-3.3,0.6-5.9,3.4-7.7c10.3-6.7,15-16.2,14.8-28.4c0-1.3,0.3-2.6,0.6-3.9c1-4.8,0.6-9.1-1.8-13.7
		c-5.4-10.5-3.5-17.5,4.8-26.1c4.5-4.6,8.9-9.5,12.1-15c2.2-3.8,2.5-8.8,3.4-13.3c0.6-2.8,0.4-5.8,1.5-8.3c0.6-1.4,3.1-2.1,4.7-3.1
		c0.8,1.6,2.1,3.2,2.2,4.8c0.1,2.9-0.6,5.9-0.7,8.9c-0.4,8.2,3.3,13.9,10.4,17.8c8.9,5,16,11.5,17,22.5c0.6,6.7-1.3,12.5-5.8,17.4
		c-0.5,0.5-1.4,0.9-1.4,1.4c-0.6,8.5-1,17.1-1.4,25.6c0,0.4,0.9,1,1.5,1.2c6.9,2.7,7.8,8.5,7.3,14.8c-0.8,10-1.6,19.9-2.3,29.9
		c-0.1,1.4,0.7,2.8,1.1,4.2C1333.9,3.7,1334.6,3.7,1335.2,3.6z M1434.7,143.1c1-19.4,2.4-38.2,2.9-56.9c0.5-19.6,0.3-39.3,0.3-58.9
		c0-1.6-0.2-4.2-1.1-4.6c-4.9-2.1-3.7-6.2-3.7-9.8c-0.1-12.6,0-25.2,0-37.6c-16.5,0-31.6,0-47,0c0,10.6-0.1,20.7,0,30.8
		c0.1,5-0.3,9.3-7.1,8.4c0,1.6-0.1,2.8,0,3.9c1,11.1,1.8,22.1,3.1,33.2c1,9,0.1,17.7-0.7,26.7c-1.1,12.7-0.2,25.6-0.2,38.5
		c0,7.5-0.3,15-0.1,22.5c0.1,1.6,1.8,4.4,3,4.5c6.1,0.4,12.2,0.2,18.2,0.2c0-5-0.4-9,0.1-13c0.8-6.4,1.7-12.9,3.6-19
		c0.7-2.1,4.4-4.4,6.8-4.4c2,0,4.8,2.7,5.9,4.9c1.5,3.1,1.9,6.7,2.2,10.2c0.6,6.9,0.8,13.8,1.1,20.6
		C1426.3,143.1,1430.2,143.1,1434.7,143.1z M1340.1,44c-2.9-2.1-5.4-3.9-7.9-5.7c-6.8,6.3-10,6.3-19.6,0.1
		c-2.3,35.4-5,70.8-1.3,105.8c21,0,41.4,0,62.2,0c0-22.3,0-43.8,0-65.3c-0.5-0.2-0.8-0.5-1.1-0.5c-3.3-0.1-7.7,1-9.6-0.7
		c-2-1.7-1.8-6.1-2.2-9.4c-1-8.2-2-16.5,1.5-24.3c-2.7-1.7-5.2-3.2-7.5-4.6c-2.6,1.6-5,3.2-7.5,4.8c0.5,0,1,0,1.5,0
		c1,8.3,2.9,16.6,2.9,25c0,10.4-0.8,10.5-11.4,10.6c-0.7,0-1.3,0.1-2,0.2c-5.3,0.9-6.6,0-7-5.3C1330.4,63.5,1333.7,53.4,1340.1,44z
		 M1303.1,71.1c-6.2,0-11.9,0.1-17.5,0c-3.3-0.1-4.5-2-4.5-5.3c-0.3-15.3-0.8-30.6-0.9-46c0-1.6,1.9-3.2,2.9-4.8
		c1.4,1.5,3.8,2.8,4.1,4.4c0.8,4.7,1,9.6,1,14.4c0.1,9.8,0,19.5,0,29.3c6,0.5,10.7,0.9,15.5,1.3c2.3-14.9,1.3-30.3-0.5-45.7
		c-1-8.6,3.2-14,11.9-15.2c2.9-0.4,5.9-0.3,9.9-0.5c-0.3-3.9,0.4-8.4-1.3-11.3c-1.4-2.4-2.1-4-1.6-6.6c1.2-6.1,2.2-12.3,3.2-18
		c-9.2-4-17.3-4.4-24.9,1.5c-1.3,1-3.3,1.3-4.3,2.4c-1.8,1.9-4.1,4.1-4.4,6.5c-0.8,6.3-0.6,12.6-0.7,19c-0.1,2.8,0.7,6.3-3.5,6.4
		c-3.6,0.1-3.8-3.1-3.8-5.8c0.2-7.2,0.3-14.3,0.6-21.5c0.2-4.9,2.6-8.5,7.2-10.5c8.6-3.8,16-11.3,26.7-7.6c0-9.8,0-18.9,0-28.1
		c-9.8,0-19.4,0-29.6,0c-1,9.1-1.8,18.1-3,26.9c-0.3,2.1-1.4,4.5-2.9,6c-2.8,2.8-6,5.2-9.3,7.4c-3.3,2.3-4.2,5.3-4.3,9.3
		c-0.8,30.5-1.9,61-2.9,91.4c-0.2,6.1,0,12.2,0,19c11.7,0,23.6,0,35.8,0C1302.4,83.4,1302.8,77.2,1303.1,71.1z M1520.4,142.2
		c-1.1-32.7-2.1-64.6-3.1-97.3c-9.2,5.1-17,4.5-24.9-1.5c-0.1,1.5,0.1,3,0.9,3.5c3.9,2.5,5.6,6.1,5.9,10.4c0.3,4,0.6,8,0.5,12
		c-0.3,12.9-0.4,12.9-12.7,16.1c-1.4,0.4-2.9,0.8-4.3,1.2c-4.6,1-6.2-0.1-6.5-4.8c-0.2-2.3-0.2-4.7-0.6-6.9
		c-1.3-7.9-2.6-15.7,1.3-22.7c-3.8-2.8-7.2-5.3-10.7-7.9c-0.6,0.6-1.3,1.5-2,2.2c1.5,1,3.2,1.7,4.1,3c5.2,7.6,8.3,25.9,1.7,33.6
		c-2.1,2.5-7,3.3-10.7,3.4c-1.4,0.1-4.1-3.8-4.3-6.1c-1.3-10.4-3.5-20.9,1.8-30.6c-3.6-1.1-6.8-2-9.8-2.9
		c-1.5,31.8-2.9,63.6-4.4,95.1C1468.3,142.2,1493.8,142.2,1520.4,142.2z M1408.5-68.2c-6.5,5.2-13.3,10.1-19.5,15.8
		c-3.4,3.1-6.7,7.1-8.4,11.3c-2,5.1,1.1,8.8,6.5,8.8c14.6,0,29.3-0.2,43.9-0.3c4.2,0,5.9-2.5,6.1-6.3c0.2-5.3-3-8.6-6.8-11.6
		C1422.9-56.6,1415.4-62.6,1408.5-68.2z M1265.1,97.2c-1,16.1-2,32.1-2.9,47.9c4.4,0,8.2,0,12.1,0c-0.3-1.7-0.6-3-0.8-4.4
		c-1.3-7.9-0.8-15.6,2.8-22.9c1.9-3.9,4.6-7,9.6-6.6c5,0.5,6.3,4.4,7.2,8.4c0.7,3.1,1,6.3,1,9.4c-0.1,5.3-0.7,10.5-1.1,15.8
		c3.5,0,6.9,0,10.5,0c-0.6-15.9-1.2-31.5-1.8-47.7C1289.5,97.2,1277.6,97.2,1265.1,97.2z M1302.8-114.9c-4.2,4.7-8.8,9.7-13.3,14.8
		c-1.5,1.7-3.3,3.4-4.5,5.3c-3.2,4.9-1.5,9.9,1.3,14c1.2,1.7,5,2.2,7.7,2.3c8.2,0.3,16.3,0.1,24.5,0.1c6.1,0,8.4-2.1,8.6-8.2
		c0.2-8.3-3.9-14.1-10.6-18.6C1311.6-108.4,1307.1-111.9,1302.8-114.9z M1475.7-37.3c-3.6,4.5-7.9,9.8-12.1,15.1
		c-1.2,1.6-2.5,3.1-3.5,4.8c-3.1,5.4-0.6,10.2,5.5,10.3c8.3,0.2,16.7,0.7,24.9,0.1c3.1-0.2,7-2.7,8.5-5.3c0.9-1.5-2.4-5.3-3.8-8.1
		c-0.1-0.3-0.5-0.4-0.8-0.6C1488.1-26.5,1481.8-32,1475.7-37.3z M1357.4-27.3c-4.3,5.8-8.2,10.7-11.7,16c-1.7,2.6-2.9,5.6-3.4,8.7
		c-0.8,4.8,1.2,6.9,6,7.2c4.5,0.3,8.9,0.7,13.4,0.9c6,0.3,7.6-0.9,7.3-6.8c-0.2-3.9-1.2-7.9-2.8-11.4
		C1363.9-17.7,1360.6-22.1,1357.4-27.3z M1371.1,13.5c-17.3-1-34.3-2.1-51.3-2.9c-7.5-0.3-9.5,2.2-8.6,9.3c0.1,0.7,0,1.4,0,2.1
		c2-5,5.8-6.4,10.1-4.8c3.9,1.4,7.4,4,11.4,6.2c2.3-3.4,5.7-6.3,10.8-4.9c4.2,1.1,8.3,2.7,12.6,4.1c2.4-6,3.3-6.3,15.6-3.5
		C1371.4,17.2,1371.2,15.4,1371.1,13.5z M1495.4,12c0-4.1,0-7.6,0-11.4c-11,0-21.6,0-32.1,0c0,4.4,0,8.5,0,12.8
		C1474.2,12.9,1484.6,12.5,1495.4,12z M1492.5,30.3c5.1-11.7,13.3-10.6,22.9-4.9c-0.2-2.6-0.3-4.3-0.5-6.5
		c-23,0.9-45.4,1.8-67.9,2.7c-0.8,0-1.5,1-2.2,1.6c9.4-2.6,16.9-1.4,22.2,7.1C1475.8,21.3,1483.2,21.1,1492.5,30.3z M1486.3,37.1
		c-0.1-3.7-3.1-6.4-6.9-6.4c-3.6,0-6.7,3.5-6.4,7.4c0.2,3.5,3.5,6.2,7.2,6.1C1483.6,44.1,1486.5,40.9,1486.3,37.1z M1505.3,41.2
		c4.6,0.1,8-2.3,8.1-5.4c0.1-2.9-4.4-7.5-7.4-6.6s-6.9,3.7-7.4,6.2C1497.7,39.7,1502.1,40.6,1505.3,41.2z M1450.2,35.6
		c0.2,2.2,0.2,6.2,5,6.4c3.5,0.2,5.6-1.9,5.7-5.5c0.1-3.7-3.2-6.8-7-7.1C1449.9,29.1,1450.1,31.8,1450.2,35.6z M1349.3,29
		c-1.1-0.7-3.5-3.6-4.7-3.1c-2.5,1-4.4,3.6-6.5,5.6c2,1.7,3.7,4.3,5.9,4.7C1347.5,37,1349.3,34.4,1349.3,29z M1364.1,38.3
		c2.6-3.2,5.3-5.1,5.5-7.1c0.1-1.8-2.7-3.8-4.2-5.8c-1.8,2.1-4.1,4-5.1,6.4C1359.9,32.9,1362.2,35.1,1364.1,38.3z M1319.2,24.4
		c-2.4,5.7-1.7,9.7,2.1,10.7c1.3,0.3,3.9-0.8,4.5-2C1327.7,29.5,1325.3,26.5,1319.2,24.4z"/>
	<path class="st0" d="M902.6,105.8c-6.6,0.1-7.2-0.7-7.2-6.9c0-3.4-1.2-6.9-1.2-10.3c0-1.6,1.5-3.6,2.8-4.7c1.8-1.4,4.6-1.7,6.3-3.2
		c12.8-10.9,25.4-22.1,38.3-32.9c2-1.7,5.2-2.1,8-2.4c2.9-0.4,6,0.1,9,0.2c5.9,0.1,8.2,3.3,6.6,9.1c-1.6,5.8-0.2,7.6,5.5,7.1
		c3.1-0.2,3.3-2.1,3.5-4.4c0.5-6.2,2.8-7.7,8.8-6.3c1.3,0.3,2.6,0.5,3.9,0.5c5.6,0.4,8.9,4,7.2,9.5c-5.6,18.1-2.7,35.6,1.8,53.5
		c11.4,45.7,22.1,91.5,33.1,137.3c1.5,6.2,4.4,7.5,10.4,4.6c5.4-2.6,6.6-2.5,8.1,3.4c4,14.9,7.6,30,11.1,45c1.1,4.6-4,8.1-10.6,7.4
		c-8.9-0.9-17.8-2.8-26.8-3c-15.6-0.4-31.3,0.2-46.9,0.4c-12.1,0.2-24.7,2.4-36.4,0.1c-27.9-5.4-55.1-0.4-82.6,2
		c-2,0.2-4.9-0.6-6.1-2c-1.9-2.2-0.2-4.1,2.2-5.4c0.8-0.4,1.2-2,1.4-3.1c1.9-13.2,3.7-26.3,5.3-39.6c0.2-1.3-1.3-2.8-2-4.3
		s-2-3.2-1.9-4.7c0.4-8.6,1.1-17.3,1.7-25.9c0.2-3.7,2.9-4.7,5.9-5.9c8.6-3.5,17.1-7.3,25.5-11.2c1.1-0.5,2.3-2.1,2.4-3.3
		C894,173.2,898.3,139.7,902.6,105.8z M1021.2,252.3c-13.2-56.1-26.5-112.1-39.8-168.7c0.1,0-0.9-0.1-1.9-0.3
		c-8.4-1.3-16.8-2.4-25.1-4c-1.3-0.3-2.3-2.5-3.4-3.9c1.4-1,2.8-2.4,4.4-3c1.1-0.4,2.6,0.3,3.9,0.5c8,1.2,16,2.4,24.4,3.6
		c1.2-6,2.3-11.5,3.4-17.2c-2-0.3-3.5-0.5-4.9-0.7c-3.7,9.7-9.2,13.3-19.4,10.2c-6.8-2-5.3-9.6-5.8-15.6c-2.5-0.2-4.9-0.4-7.5-0.6
		c-3.2,69.3-6.3,138.3-9.5,207.9C967.2,257.8,993.9,255.1,1021.2,252.3z M934.4,227.5c2.5-56,5-112.4,7.5-169.8
		c-2.2,1.6-3.4,2.4-4.5,3.3c-10.3,8.9-20.4,18.2-31.1,26.7c-4,3.2-4.2,6.1-2.5,11c2.7-1.7,5.4-2.9,7.6-4.8
		c7.1-6.3,14-12.9,20.9-19.3c2.1-2,4.3-3.7,6.8-0.8c2.3,2.7,0.1,4.5-1.8,6.2c-8.2,7.6-16.4,15.1-24.5,22.9c-1.4,1.3-2.6,3.4-2.9,5.3
		c-3.1,22.8-6,45.6-9,68.3c-1.3,10.2-2.6,20.3-4,31c1.9-0.5,3.2-0.8,4.4-1.2c8.8-3,8.9-3,8.5-12c-0.7-16.7,1.6-32.9,7.4-48.6
		c0.6-1.7,2.5-4.1,3.7-4c1.7,0.1,4,1.8,4.8,3.4c1.6,3.2,3.3,6.9,3.2,10.3c-0.3,16.3-1.1,32.6-2.1,48.9c-0.1,1.4-3,3.1-4.8,3.7
		c-2.6,0.8-5.7,0.1-8.3,1.1c-16,6-31.9,12.3-47.7,18.6c-1.2,0.5-2.7,1.7-2.8,2.7c-0.6,5.9-0.8,11.9-1.2,18.2
		C886.2,241.6,909.9,234.7,934.4,227.5z M1042.4,266.3c-6.8-1.3-11.9-2.2-16.9-3.2c-4.3-0.8-8.7-2.7-12.9-2.4
		c-17.4,1.4-34.8,3.4-52.2,5.3c-7,0.7-14.1,1.6-21.1,2.4c-0.7,10.4-1.4,20-1.9,29.6c-0.1,3.2,1.6,5.4,5.1,5.4c9-0.1,18-0.3,27-0.4
		c19.3-0.2,38.6-0.7,57.9-0.5c7.7,0.1,15.4,1.8,24.5,2.9C1048.5,291.2,1045.2,277.8,1042.4,266.3z M933.5,236.4
		c-1.4,0.1-2.3,0-3,0.2c-20.5,6-41.1,12.1-61.6,18.3c-1.3,0.4-2.6,2.7-2.8,4.3c-0.9,6.1-1.1,12.3-1.9,18.4
		c-1.1,8.6-2.5,17.2-3.9,26.3c5.6-0.6,10.9-1.2,16.3-1.8c0.2-1.6,0.2-2.9,0.5-4.2c2.2-9.7,3.8-19.6,6.8-29c2.4-7.7,8.1-11.4,13.8-11
		c6.3,0.5,11.6,5.2,13.8,12.7c0.9,3.2,1.2,6.5,1.6,9.8c0.7,6.4,1.3,12.9,1.9,19.3c5.1,0,9.9,0,14.9,0
		C931.1,278.4,932.3,257.5,933.5,236.4z M908,300c-1.5-10-2.7-19.6-4.7-29.1c-0.4-2.1-3.6-5-5.6-5.1c-2.1-0.1-5.4,2.2-6.4,4.3
		c-4.5,9.7-6,20.2-7,31.3C892.2,300.9,899.5,300.5,908,300z M917.9,200.7c0.7,0,1.4,0,2.1,0c0.9-14,1.7-28.1,2.6-42.1
		c-0.5,0-1-0.1-1.5-0.1C917.5,172.3,915.8,186.4,917.9,200.7z"/>
	<path class="st0" d="M1143.3,606.5c2.6,14.7-3.2,23-17.2,25.4c8.9,10.5,10.1,17.7,4.3,24.5c-6.1,7.2-14.4,8.2-23.7,2.8
		c-10.6,6.1-12.7,6.2-18.9,1.2c-5.8,2.5-10.8,5.5-16.2,6.7c-6.1,1.3-11.2-2.2-15.3-6.6c-0.4,0.3-0.9,0.4-0.9,0.6
		c-2.2,9.5-6.9,13.4-15.1,12.2c-10-1.5-16.7-9.2-15.8-18c1-8.7,5.6-15.3,12.4-20.3c2.6-1.9,3.1-3.4,2.5-6.5
		c-2.8-13.7,5.6-25.8,18.9-27.2c-2.5-13.7,2.3-23.7,15.9-29.1c-5-6-6.7-12.8-4.5-19.7c1.5-4.7,3.8-9.9,7.4-13.1
		c7.9-7.1,20.9-5,29.3,3.2c1-4.1,1.6-8.5,3.1-12.6c1.9-5,3.8-5.3,8.4-2.6c1.9,1.1,3.7,2.2,6,3.6c1.8-4.8,3.5-9.3,5.3-13.8
		c1.9-4.8,4.8-8.8,9.8-10.7c4.6-1.8,6.4-1,7.6,3.8c0.5,1.9,0.9,3.8,1.4,6.1c3.6-2.3,6.7-4.5,10-6.4c7.4-4.2,13.6-3.5,18,1.8
		c3.8,4.6,3.1,11-2.1,17.2c-1.2,1.5-2.5,3-4,4.7c2.6,0.8,4.7,1.2,6.6,2c8.5,3.4,10.4,12.3,3.6,18.3c-3.7,3.2-8.3,5.5-12.8,7.5
		c-5.3,2.3-10.9,3.9-16.4,5.8c3.6,3,7.6,5.6,10.6,9.2c2.8,3.4,4.8,7.6,6.3,11.7c1.7,4.8-0.8,7.1-5.7,5.7c-3.2-0.9-6.3-1.8-10.4-3.1
		C1152.6,598.5,1153.4,605.7,1143.3,606.5z M1121.5,558.2c0.2-0.4,0.5-0.7,0.7-1.1c2.2-0.1,5.3-1.2,6.5-0.2
		c5.3,4.5,11.2,5.3,17.3,3.5c8.9-2.6,17.6-5.8,26.2-9.3c1.9-0.8,3-3.6,4.5-5.4c-2-1.3-3.8-3-5.9-3.8c-2.3-0.9-4.9-1-7.3-1.5
		c-4.8-1.1-5.8-3.6-2.8-7.4c2.6-3.3,5.8-6.1,8-9.6c1.2-1.9,0.8-4.7,1.2-7.1c-2.5-0.2-5-0.8-7.3-0.3c-2,0.4-3.8,2.1-5.6,3.2
		c-2.9,1.9-5.7,4.1-8.7,5.9c-4.4,2.5-6.5,1.5-7.3-3.4c-0.4-2.1-0.7-4.1-1.1-6.2c-0.5-0.1-0.9-0.3-1.4-0.4c-1.5,3-3.1,5.9-4.4,9
		c-1.8,4.1-3.1,8.4-5,12.5c-1.6,3.6-4.2,4.5-7.6,2c-1.8-1.3-3.9-2.4-6.4-4C1113.6,544,1115.9,551.6,1121.5,558.2z M1112.8,568.2
		c-7.8,0-10.6,1.9-13.1,9.7c-3.5,11.1,2.4,19.6,12,19.7c1.3,0,2.6-0.9,3.8-1.6c1.9-1.1,3.8-2.3,5.6-3.5c1.7-1.1,3.7-2,4.8-3.6
		c2.9-4.1,2.4-8.6,0-12.6C1122.6,570.9,1117.7,568.3,1112.8,568.2z M1090.9,574.9c-7,2.5-13.6,4.1-19.5,7c-5.3,2.6-7.3,9.9-5.7,15.7
		c1.4,5.1,5.2,7.9,11.5,8.6c5.9,0.6,13.1-4.5,13.6-10.4C1091.3,589.4,1090.9,583,1090.9,574.9z M1106.1,621.5
		c0-6.5-2.9-10.1-7.4-13.1c-4.4-3-6.6,0.6-9.5,2.5c-0.4,0.3-0.9,0.5-1.3,0.7c-5.3,2.6-8.1,7.3-9.5,12.7c-1.1,4.4,0.4,7.9,4.5,10.1
		c5.2,2.8,10.6,3.2,15.7,0C1103.7,631.3,1105.9,626.5,1106.1,621.5z M1086.3,568.7c8.9,0.1,15.6-6.2,15.6-14.6
		c0-6.7-4-11.4-9.8-11.6c-9.7-0.2-16,5.9-15.9,15.3C1076.3,564.9,1079.8,568.7,1086.3,568.7z M1066.1,623.2
		c-0.6-2.5-1.4-5.4-2.1-8.2c-1.5-5.8-7.6-7.7-12.2-3.9c-5.5,4.6-7.6,15-3.1,20.8c2.2,2.8,6.4,5.9,9.4,5.6c2.5-0.2,4.9-4.9,6.8-8
		C1065.9,627.9,1065.7,625.7,1066.1,623.2z M1158.2,584.2c-7.4-10.7-19-12.3-29.6-17.2c2,3.3,3.9,5.7,4.9,8.4
		c2.1,5.5,3.6,11.3,5.7,16.7c1,2.5,2.9,4.5,4.4,6.8C1144,585.9,1145,584.8,1158.2,584.2z M1119.9,613.2c0,0.4-0.3,1.8,0.3,2.7
		c1.7,2.8,3.2,6.8,5.7,7.8c3.8,1.5,7.4-1.3,9.2-4.9c1.1-2.2,1.7-5.1,1.4-7.5c-0.7-5.7-6-11.4-9.7-11.2
		C1123,600.3,1119.9,605.9,1119.9,613.2z M1043,639.7c-6.3,4.5-9.9,9.1-10.9,15.3c-0.9,5.7,3.9,10.7,10.2,10.9
		c4.3,0.2,6.8-3,5.8-9.4C1047.2,651,1044.9,645.7,1043,639.7z M1070.8,660.1c1.1-0.2,2.6-0.2,3.6-0.9c2.2-1.6,5.3-3.3,5.7-5.5
		c0.4-2-2-4.9-3.8-6.7c-2-1.9-4.7-3.1-7.2-4.2c-3.5-1.5-8.3,1.5-8.9,5.2C1059.2,654,1064.5,660.1,1070.8,660.1z M1116.2,635.5
		c0.4,1,0.8,2,1.3,3c-2.1,1-4.6,1.6-6.2,3.1c-1.5,1.4-2.9,3.9-2.7,5.8c0.3,4.1,3,7.1,7.2,7.9c4.2,0.8,7.4-1.2,9.6-4.7
		c2.3-3.7,1.4-7.2-1.5-10C1121.7,638.5,1118.7,637.2,1116.2,635.5z M1096.3,643.3c-1.9,2.9-3.2,4.7-4.3,6.7c-0.5,1-0.9,3-0.5,3.3
		c1.7,1.2,4.4,3.2,5.6,2.6c1.7-0.8,3.6-3.9,3.3-5.6C1100.1,647.8,1097.8,645.6,1096.3,643.3z M1113.2,605.4
		c-2.4-0.2-4.1-0.3-6.2-0.5c1.8,2.5,3.2,4.4,4.6,6.4c0.1,0.1,0.3,0.1,0.8,0.1C1112.7,609.6,1112.9,607.7,1113.2,605.4z"/>
	<path class="st0" d="M387.3-22.4c1.4-5.7,2-10.8,3.9-15.3c1.5-3.5,3.9-7.1,6.9-9.5c7-5.9,17.2-4.9,21.9,1.5
		c5.2,7.2,2.9,18.7-4.7,23.9c-6.3,4.3-13.4,4.5-21.3,4.8c5.2,4.1,10.3,8.1,16.5,13c1.1-1.6,2.3-3,3.2-4.5
		c7.5-12.3,18.5-19.6,31.9-24.3c4.4-1.5,8.2-4.9,12.3-7.1c1.8-1,3.9-1.2,5.9-1.8c0.2,1.9,1.1,4.2,0.5,5.7
		c-7.5,18.2-19.7,32.2-37.2,41.5c-0.4,0.2-0.8,0.6-1.6,1.2c1.6,1.3,3,2.5,4.7,3.8c5.9-10.6,15.5-13.3,26.2-14.1
		c7.4-0.5,14.8-1.7,22.2-2.5c1.3-0.1,3.5,0.2,3.9,1c0.6,1.5,0.8,3.7,0.1,5.1c-3.6,7.5-9,13.9-16.5,17.5c-6.6,3.2-13.8,5.2-20.9,7.8
		c2.7,3.9,5.9,8.5,8.1,11.7c7.4-2.1,14-4.8,20.9-5.7c6.4-0.9,11.6,2.7,14.5,8.6c2.7,5.6,1.3,10.8-2.5,15.3c-4.3,5.1-10,7.2-16.6,5.7
		c-2.7-0.6-5.3-1.9-8.2-3.1c0.2,3.4,0.6,6.8,0.5,10.2c-0.1,5.6-2,6.9-6.2,5.7c-3.4,4.4-5.9,9-9.7,12.2c-7.1,6-16.3,2.6-18.8-6.3
		c-3.2-11.2,4-27.5,14.7-32.3c2.1-0.9,4.8-0.6,8.6-1c-4.8-7-9.1-13.3-14.3-20.9c-0.9,4.3-1.3,6.9-1.9,9.6
		c-3.3,13.7-10.6,24.7-22.2,32.7c-5.6,3.8-8.1,2.7-8.7-4c-1.6-17.6,4-32.4,16.9-44.5c1.1-1,2.3-2,3.4-3c0.1-0.1,0.2-0.3,0.7-1
		c-4.6-3.5-9.2-7.1-13.7-10.5c-0.5,4.8-0.3,9.4-1.6,13.6c-1.1,3.5-3.3,7-6,9.5c-6.2,6-15.7,5.9-20.7,0.5c-5.1-5.5-4.7-15.5,1.6-21.2
		c3-2.7,7-4.4,10.6-6.4c1.6-0.9,3.4-1.6,6.1-2.9c-6.9-5.6-12.9-10.6-19.1-15.6c-1.7,7.5-3.1,14.6-5.1,21.6
		c-3.5,12.1-9.4,23.1-17.2,33c-1.1,1.3-3.4,2.9-4.7,2.5c-1.4-0.3-2.8-2.6-3.3-4.3c-5.7-18.9,2.4-42.8,19.2-55.8c3.9-3,4-4.9,1.1-8.6
		c-9.9-12.5-16.1-26.4-15.1-42.8c0.2-3.5,0.8-7,2-10.2c0.5-1.5,2.9-2.2,4.5-3.3c0.8,1.7,2.6,3.6,2.2,5
		C359.1-56.3,371.1-38.9,387.3-22.4z M427.7,23.1c-10.7,5.8-20,25.8-16.7,35.6C421.9,50.4,429.5,34.3,427.7,23.1z M470.6,4.2
		c-0.1-0.6-0.2-1.3-0.4-1.9c-8.7,1.4-17.4,2.4-26,4.3c-4.2,0.9-7.3,4.2-7.6,9.1C449.6,18.3,461.9,14,470.6,4.2z M396.2-25.7
		c1.5,0.2,3.1,0.7,4.7,0.7c7.7,0.2,13.5-4.1,14.3-10.4c0.7-6.3-3.7-9.8-9.7-7.6C399.5-40.8,395.9-34.3,396.2-25.7z M417.9-0.8
		c9,0.6,27.9-14.7,32.5-25.7C436-22.5,424.9-14.7,417.9-0.8z M459.3,42.5c2.9,6.5,6.5,10.1,12.1,11.3c4.9,1.1,10.6-2.9,11.1-7.6
		c0.5-4.3-3.5-8.3-8.9-7.7C468.9,39,464.3,41.1,459.3,42.5z M444.6,54.3c-7,4.6-10.6,10.9-10.9,18.8c-0.1,2.7,2.1,5.4,3.3,8.1
		c2.7-1.5,6.3-2.5,7.8-4.7C449.4,69.4,447.2,62,444.6,54.3z M401.5,6.3c-5.4,0.9-10.5,2.5-13.9,7.3c-2.2,3.1-2.7,6.7,0.1,9.6
		c2.8,2.8,6.2,1.8,9.1-0.1C402.1,19.7,404.1,12.8,401.5,6.3z M372.3-12.4c-9.6,6-18.5,27.8-14.7,38.1C365.3,14.1,370,1.8,372.3-12.4
		z"/>
	<path class="st0" d="M1117.2,279.3c6.3-10.4,13-18.4,23.6-22.4c10.1-3.8,20.8-1.2,27.6,7.1c6.7,8.1,7.4,19.3,1.8,27.9
		c-5.4,8.3-16.5,13-25.6,10.6c-5.8-1.5-10.4-4.6-11.6-11c-1-5.2,3.1-13.7,8-16.2c1.1-0.6,3.5-0.3,4.3,0.5c0.8,0.9,1,3.1,0.5,4.3
		c-0.8,1.8-2.5,3.1-3.6,4.7c-3.4,4.9-1.8,9.1,4,10.5c6.2,1.5,13.6-1.3,17.6-7c3.8-5.4,3.9-11.2,0.7-17c-3.5-6.4-10-9.6-16.6-8.7
		c-8.4,1.2-14.1,6.3-19.1,12.6c-1.2,1.6-2.3,3.3-3.3,5c-5.9,10-11.6,20.1-17.8,29.9c-6.3,9.8-13.3,19.1-20,28.8c5-2,9.9-5,15.2-6
		c7.9-1.5,16.2-2.6,24.1-2.1c9,0.6,16.3,5.6,18.8,14.8c2.9,10.6-0.4,19.8-8.2,27.2c-6.5,6.2-14.4,7.4-22.7,4.2
		c-9.8-3.8-14-15-9.2-23.9c4.9-8.9,18.1-10.4,24.1-2.5c1,1.3,0.5,3.8,0.7,5.7c-1.9-0.1-4.3,0.4-5.6-0.6c-4.7-3.4-9-3.8-11.9-0.4
		c-3.1,3.5-2.2,10.3,1.9,13.4c1.4,1.1,3.2,1.9,4.9,2.4c8.3,1.9,16.7-4.5,19.1-14.3c2.2-9.2-1.7-16.2-10.7-18.3
		c-14.9-3.5-28,1.3-39.8,10c-4.4,3.2-8.2,7.3-11.7,11.6c-15.2,18.7-35.5,20.4-53.7,4.3c-0.5-0.4-1-0.8-1.8-1.4
		c-0.8,2.2-1.5,4.1-2.3,6c-3.7,8.3-12.3,13.2-21,12.1c-10.4-1.4-17.8-8.1-19.1-17.5c-1.5-10.3,6.7-19,16.1-16.7
		c1.8,0.4,4.3,2.7,4.3,4.2c0,3-2.5,3.6-5.5,3.2c-5.1-0.8-8.3,2.9-7.6,8.2c0.9,6.8,7.1,11.5,14.8,11.3c6.7-0.2,12.1-5.9,12.7-13.1
		c0.9-12.1-6.9-21.2-20-23.1c-17.7-2.7-36.8,8.3-45.3,26.2c-1,2.1-1.5,4.5-2.8,6.3c-0.9,1.2-2.9,1.5-4.4,2.2
		c-0.8-1.6-2.5-3.5-2.1-4.8c8.4-26.9,37.4-44.6,63.5-35.3c4.8,1.7,9.3,4.1,13.7,6.6c1.3,0.7,1.9,3,2.4,4.6
		c5.2,15.9,17.7,25.2,32.6,24.2c12.3-0.9,20.9-10.1,20.9-22.4c-0.1-11.4-13-20.5-23.8-16.8c-4.6,1.6-8.2,6.4-8.3,11.4
		c-0.1,4.3,1.7,7.7,6,8.7c2.2,0.5,4.7-0.5,7.1-0.4c1.7,0,3.4,0.7,5.1,1c-0.7,1.9-0.9,4.8-2.3,5.6c-5.7,3.2-11.6,2.6-16.9-1.2
		c-5.6-4-7.4-9.8-6.3-16.3c2.1-12.3,14-19.3,27-16.1c8.5,2.1,11.4,4.6,19.2,16.7c10.4-14,22.2-26.8,28.1-43.4
		c4.1-11.4,4-22.9-0.5-34.2c-2.7-6.6-6.9-12-14.7-12.5c-5.7-0.4-12,5.5-14.9,13.1c-2,5.3-2.3,10.5,1.7,15c2.3,2.7,5.2,4.3,8.8,2.5
		c3.2-1.6,4.3-4.2,3.6-7.9c-0.2-1.2,1.8-2.8,2.7-4.2c1.6,1.3,4.2,2.3,4.7,3.9c1.4,5.3-0.7,9.8-5,13.2c-4.3,3.4-9.1,4.1-14.1,2
		c-8.6-3.6-12.8-12.7-10.8-22.9c2.2-11.6,12.8-21.9,22.8-22.1c8.2-0.2,13.7,4.4,18.2,10.5C1115,258.9,1116.4,268.5,1117.2,279.3z"/>
	<path class="st0" d="M702.2,102.2c7.7-3.3,15.4-6.6,23.2-9.8c1.5-0.6,3.8-1.2,4.9-0.5c1.1,0.7,1.6,3.2,1.4,4.7
		c-0.7,4.4-1.8,8.8-3,13.1c-3.3,12.6-11.1,19.1-24.2,19.9c-3.1,0.2-6.3,0-10.5,0c3.6,5.6,6.7,10.9,10.4,15.7c0.8,1,4.2,0.7,6,0
		c2.6-1,5.1-3.7,7.2,0c2,3.5-1.2,5-3.6,6.5c-1,0.6-2,1.2-3.2,2c7.4,9.5,14.8,18.9,22.1,28.4c3.2-0.5,6-6.6,9.3-1.9
		c3.3,4.8-3.2,5.8-5.1,8.9c2.1,5,4.6,10.1,6.3,15.4c0.7,2.1-0.5,4.7-0.8,7.1c-2.2-0.7-4.8-0.9-6.4-2.2c-9.2-7.6-14.5-18.1-20.2-28.2
		c-1.1-2-2.3-4-3.4-6c-3.8,0.2-6.9,7.8-10.6,2c-3.1-5,3.8-5.7,6.7-9.5c-8-10.2-16.3-20.7-24.8-31.4c-2.8,3.9-4.7,7.3-7.2,10
		c-6.1,6.6-13.8,9.6-22.9,8.9c-4-0.3-8-0.6-11.9-0.7c-3.3-0.1-4.5-1.7-3.9-4.8c1.6-8.3,9.9-24,15.9-29.7c-15-9.4-24.7-24-36-37
		c-3.1-3.5-6.2-7-9.5-10.3c-4.5-4.6-10.5-5.3-16.4-6.6c-8-1.6-11.8-7.8-9-14.1c0.9-1.9,2.4-3.7,4.1-4.8c1.2-0.7,3.2-0.1,4.9-0.1
		c-0.1,1.8,0.6,4-0.3,5.3c-2.8,4.3-2.4,6.2,2.8,6.6c10.8,0.8,18.5,6.8,25.2,14.5c9.3,10.7,17.9,22,27.9,32
		c16.5,16.3,39.1,11.1,48.2-10.5c4.9-11.6,5-23.3,1.3-35.2c-1.8-5.9-4.3-11.6-5.8-17.5c-2.5-10.1-4.4-20.4-6.5-30.7
		c-1-5-1.8-10.2-3-15.1c-0.8-3-2.1-5.8-6.4-3.7c-0.9,0.5-3.9-0.8-4-1.4c-0.1-1.7,0.2-4.1,1.4-5.1c4-3.5,10.7-2.4,13.3,2.8
		c2.6,5.3,4.9,11.2,5.4,16.9c1.3,16.3,5.6,31.7,11.2,46.9c5.9,15.9,6.3,31.9-1.4,47.6C701.6,101.3,701.9,101.7,702.2,102.2z
		 M647.9,147.1c8.5,1.9,16,1.2,22.7-4.7c6.5-5.6,5.8-13.7,8.8-21C655.2,125.8,651.3,129.1,647.9,147.1z M692.5,120
		c14.4,7.5,28.9-1.2,29.8-17.7C711.9,107.6,698.1,106.5,692.5,120z"/>
	<path class="st0" d="M1357.3-120c4.9,1.7,9.8,2.8,14.1,5c6.4,3.4,8.3,9.9,5.4,15.7c-2.9,5.7-10.1,8.5-16.3,6.1
		c-7.4-2.8-10.9-8.7-11.5-16.1c-0.9-10.5,1.8-20.3,8-28.8c7.6-10.4,18.7-11.6,30.2-9c18.2,4,31.7,14.8,41.6,30.4
		c0.4,0.7,0.9,1.4,1.3,2.1c0.1,0.1,0.3,0.2,0.6,0.5c1.3-3,2.5-6,4-8.9c3.5-7,9.3-11.7,16.2-15c4.2-2,6.5-1.1,7,3.7
		c0.9,8.8,1,17.7,1.5,27.3c-1-0.4-0.6-0.2-0.5-0.2c11.5-5.6,22-3.6,32.4,3.5c4.8,3.3,10.7,5.4,16.4,6.9c7.4,1.8,15-2.6,17.6-9.1
		c1.7-4.4,1.1-8.5-2.6-11.2c-1.9-1.4-5.6-2-7.5-1c-2,1-2.8,4.3-4.1,6.6c-0.2,0.3,0.4,1.1,0.2,1.4c-0.8,1.7-1.7,3.4-2.6,5.1
		c-1.5-1.2-3.7-2.1-4.3-3.7c-1.9-5.1,0.8-11.9,5.6-15.4c4.7-3.4,11.1-3.5,15.9-0.2c7.1,4.8,9.7,14.8,5.9,22.6
		c-0.6,1.2-1.2,2.3-1.6,3c6.7,0.4,13.6-0.2,20.1,1.4c4.9,1.2,9.2,4.9,13.7,7.6c2.3,1.4,4.8,2.8,6.5,4.7c1.3,1.5,2.2,4,2.1,6
		c-0.5,15.9,12,29,26.7,27.6c10.4-0.9,17.1-10.5,13.6-19.3c-2.1-5.3-5.2-6.3-10.2-3.7c-1.3,0.6-3.6,0.4-4.8-0.4
		c-0.7-0.5-0.6-3.1,0-4.4c2.4-4.8,9-6,14.5-2.9c10.7,6,11.7,23.2,1.8,31.9c-11.9,10.4-31.6,7.4-41.9-6.4c-1.4-1.9-2.6-3.8-4-6.1
		c-5.7,6.9-12.8,10.3-21.6,9.3c-6.5-0.8-11.2-4.1-13.9-10c-2.5-5.7,0.6-12.2,6.5-13.2c1.4-0.2,3.6,0.8,4.3,1.9
		c0.5,0.8-0.2,3.3-1.2,4.2c-3.5,3.2-3.5,5.4,0.5,8.1c4.9,3.3,12.2,2.4,17.1-2.1c4.3-3.9,5-10,2-15.6c-4.8-8.8-15.6-13.1-27.3-10.9
		c-3.6,0.7-7.1,1.7-10.6,2.8c-2.9,0.9-5.9,3-8.4-0.8c-0.3-0.5-1.9-0.4-2.8-0.3c-8.7,0.8-16.4-2.2-23.6-6.6c-1.4-0.9-2.8-1.8-4.2-2.7
		c-10.7-6.8-19.1-6.3-28.5,2.3c-3.8,3.4-7,7.5-10.3,11.5c-2.7,3.3-5.1,3.3-7.7,0c-0.8-1-1.7-2-2.4-3.2c-3.8-6.8-7.6-13.6-11.3-20.5
		c-7.6-14.2-18.7-24.6-34.1-29.8C1371.8-144.8,1361.8-139.1,1357.3-120z M1451.6-129.6c-13.2,7-17.5,25.1-8.9,37.1
		C1450.7-103.6,1453.3-115.8,1451.6-129.6z M1356.2-112.7c0,5.4,1.4,9.5,5.6,12.1c3.1,2,6.2,1.4,8.2-1.8c2.1-3.3-0.2-5.6-2.8-6.8
		C1363.8-110.7,1360.1-111.5,1356.2-112.7z"/>
	<path class="st0" d="M807.8,144.5c-3.8-1-7.7-1.6-11.1-3.1c-6.6-3-13.5-5.9-19.3-10.2c-11.2-8.3-13.9-22.1-8.1-35.5
		c0.7-1.7,1.6-3.3,2.3-4.9c-19.5-21.1-10.3-60.6,17.3-73.4c0-3.1-0.4-6.5,0.1-9.7c2.2-14.6,18.2-24.5,32.3-20.8
		c6.4,1.7,12.2,7,17.4,11.6c5.5,5,7.4,12.1,7.5,19.5c0,0.3,0.2,0.6,0.3,0.9c3.7,1.1,7.4,1.8,10.9,3.2c15.4,6.6,23.8,27.9,17.1,43.6
		c-2.1,5-2.1,9.3-0.9,14.7c4.4,19.4,4.2,38.3-12.6,52.8c-7.1,6.2-15.6,9.5-24.8,11c-2.8,0.5-4.2,1.5-4.3,4.3
		c-0.6,10.8-1.3,21.6-1.8,32.4c-0.3,6.5-0.2,13-0.3,19.5c-0.1,4-1.7,5.9-6.1,6c-4.1,0.1-8.2,1.1-12.2,2.2c-6,1.7-7.4,0.4-6.9-5.8
		C805.8,183.6,806.7,164.1,807.8,144.5z M821.8,138.4c4.8-0.4,8.1-0.6,11.4-1.1c18-2.3,31.7-13.2,34.1-28.8c1.3-8.5,1-17.8-0.9-26.2
		c-1.6-6.9-1.4-12.6,1-19.2c6.8-18.8-5.2-36-24.8-36.3c-5.2-0.1-5-2.9-4.5-6.7c1.6-11.1-4.1-20-14.8-23.2c-0.9-0.3-2.3-0.4-2.7-1.1
		c-2.2-3.6-5.4-2.6-8.4-2C799.6-3.5,793.8,5.7,797,18.2c1,3.9,0,5.3-4,6.6c-4.7,1.5-9.8,4-12.8,7.7c-9.5,11.3-13.4,24.9-11,39.6
		c0.7,4,3.3,8.5,6.4,11.3c5.7,5.1,6.1,4.6,2.3,11.6c-0.5,0.9-0.9,1.8-1.3,2.7c-4.6,10.1-3.7,19.1,3.5,25.7
		c8.9,8.1,19,13.7,31.7,12.2c0.8-0.1,1.6,0.3,2.4,0.5C817.2,137.1,820.1,138,821.8,138.4z M814.7,145.5c-0.7,18.5-1.5,36.5-2.2,54.8
		c2.5-0.4,4.5-0.9,6.4-1c2.9,0,3.7-1.5,3.8-4c0.3-16.5,0.7-33.1,1-49.8C821.3,145.5,818.5,145.5,814.7,145.5z"/>
	<path class="st0" d="M1196.4,291.4c-4.8-8.3-2.4-15.3,3.2-21.4c9-9.8,20.1-17,33.6-17.6c22.9-1.1,40.6,20.8,36,43.4
		c-0.2,0.8-0.2,1.6-0.4,2.8c3.1,1,6.1,1.8,9,2.8c16.3,6.1,22.7,19.7,16.6,36c-4.9,13.3-13.4,23.8-26.1,30.3
		c-3.4,1.8-7.6,2.5-11.4,2.7c-2.9,0.1-4.3,1.2-6.5,3c-4.7,4-4.6,8.6-4.4,13.9c0.5,16,0.8,32,1.3,47.9c0.2,5-1.3,7.7-6.7,8.3
		c-3.6,0.4-7.1,1.9-10.5,3c-4.7,1.5-6.6,0.4-6.7-4.6c-0.1-6.2,0-12.3,0.3-18.5c0.7-13.1,1.6-26.2,2.4-39.7
		c-10.4-0.7-20.5-1.8-28.5-9c-8.5-7.7-9-17.2-5.8-27.5c-1.1-0.3-1.7-0.6-2.4-0.6c-20.7-1.1-27-21.8-17.5-37.2
		c4.3-6.9,10.5-11.5,17.7-15C1191.6,293.5,1193.8,292.6,1196.4,291.4z M1224.2,376.5c4.3-1,9.3-1.7,14-3.2c4.8-1.5,8.7-4,7.8-10.4
		c-0.5-3.3,3.2-5,5.8-2.5c5.2,5,10.2,3.1,15,0c11.2-7,18.7-16.9,21.7-29.9c2.1-9.1-1.3-16.7-9.7-20.7c-4.2-2-8.8-3.1-13.3-4.1
		c-6.9-1.5-7.3-2-4.7-8.3c3.9-9.2,2.1-17.7-3.7-25.4c-6.4-8.5-14.9-14.4-25.7-12.2c-10,2.1-19.5,6.7-26.2,15.2
		c-5.7,7.1-5.3,9.2,2.1,14.6c1.3,0.9,2.6,3.1,2.4,4.4c-0.2,1.2-2.3,2.4-3.9,3c-3.7,1.3-7.8,2-11.4,3.5c-8.6,3.5-15.7,8.8-18.6,18.2
		c-3.5,11.5,3.6,21,15.6,20.8c11-0.2,11-0.2,7.5,10.3c-4.1,12.3,0.3,21,12.9,24.5C1215.5,375.3,1219.5,375.7,1224.2,376.5z
		 M1240.3,435.9c-0.6-18.1-1.2-35.9-1.8-53.6c-4.2-0.6-4.9,1.4-5.1,4.3c-0.7,10.8-1.7,21.6-2.2,32.4c-0.3,6.4-0.1,12.8-0.1,19.4
		C1234.2,437.5,1236.7,436.8,1240.3,435.9z"/>
	<path class="st0" d="M475,654.1c21.8-9.6,53.4,2.9,61.5,34.1c1-2.8,1.6-5.1,2.5-7.2c4.9-11.7,12-21.3,25.4-23.8
		c11.1-2.1,19.7,3.7,22.5,14.6c0.2,0.9,0.5,2,1,2.7c8.1,10.2,26.9,9.7,34.5-0.8c3.5-4.9,3.7-10,0.5-13.2c-3.4-3.4-12.2-4.6-15.9-2
		c-2.2,1.5-2.5,2.9-0.7,5.3c1.1,1.4,0.6,3.9,0.9,6c-2-0.2-4.4,0.2-5.9-0.8c-5.2-3.4-4.8-11.8,0.5-15.9c7-5.4,20.6-4,27.2,2.8
		c5.5,5.7,5.1,15.3-0.9,22.8c-8.7,10.9-25.8,13.7-38.6,6.3c-1.3-0.8-2.5-1.6-4-2.6c-1.5,2.6-2.7,5.3-4.5,7.7
		c-4.9,6.8-13.2,7.8-17.8,2.2c-1.3-1.5-2.4-4-2.2-5.8c0.3-2,2-4.9,3.7-5.3c2.6-0.6,3.6,1.7,3.7,4.5c0.1,3.5,2.6,3.3,4.9,1.9
		c5.1-3.3,6.4-10.3,3-15.4c-0.5-0.7-0.9-1.4-1.3-2.1c-3.9-6.9-8.2-8-15.3-3.6c-12,7.5-16.5,18.8-15.9,32.3c0.2,4.2,1.9,8.4,2.5,12.7
		c0.3,2-0.5,4.1-0.8,6.2c-1.8-0.7-3.5-1.3-5.2-2c-5.3-2.2-5.7-7.3-7.1-11.8c-2.2-7-3.6-14.2-6.2-21c-5.9-15.5-22.7-25.9-39.2-24.6
		c-10.8,0.8-18.6,9.2-17.7,19c0.4,4.3,2.3,7.6,6.4,9.4c4.2,1.8,7.5-0.1,8.8-5.5c-1.8,0.5-3.3,1.4-4.7,1.3c-1.5-0.1-4-0.7-4.3-1.7
		c-0.4-1.3,0.3-3.9,1.4-4.6c2.6-1.6,5.7-3.2,8.7-3.4c1.7-0.1,4.3,2.2,5.2,4c2.4,4.8,1,10.6-2.8,14.2c-3.8,3.7-10.3,4.6-15.9,2.2
		c-1.5-0.7-2.9-1.5-4.5-2.4c-0.8,6.2-1.1,12.2-2.3,18c-1.4,6.9-6,11.1-11.5,11.6c-6,0.5-11-2.8-12.6-8.3c-1.5-5.2,1.2-11.4,6.4-13.7
		c1.3-0.6,3.2,0.2,4.9,0.4c-0.2,1.8-0.4,3.6-0.8,5.4c-0.1,0.5-1.1,0.7-1.6,1.1c-2.6,2.2-2.5,4.8-0.2,6.9c2.3,2,5.1,1.4,6.3-1.2
		c1.5-3.1,2.6-6.5,3-9.9c0.7-5.9,0.8-12,1.1-17.9c0.3-4.5-0.2-9.2,1.1-13.4c1.2-3.8,4.3-7.1,5.7-9.3c-2.9-10.2-6-19.5-8-28.9
		c-0.8-3.5,0.1-7.7,1.4-11.1c2.9-7.4,12.1-8.7,17-2.5c2.2,2.8,3.9,6.4,4.3,9.8c0.3,2.5-1.3,5.9-3.3,7.6c-1.5,1.3-4.9,1-7.3,0.5
		c-1-0.2-2.6-3.1-2.2-3.8c1.1-1.9,3.1-3.2,5.5-5.5c-1.2-1.3-3-3.3-4.8-5.2c-1.2,2.5-3.3,5-3.4,7.5C466.4,637,470,647.2,475,654.1z"
		/>
	<path class="st0" d="M1178.7,38.5c-12.3,0-19.6-7.2-24.8-16.9c-14.5-26.8-1.9-62.5,26.2-74.9c0.3-0.1,0.5-0.4,1-0.9
		c-4.6-11.7-1.8-22,6.6-31c7-7.4,14.3-7.8,24-4.7c9.9,3.2,18.6,7.6,24.2,16.4c3.7,5.8,6.9,12.2,8.8,18.8c3,10.3,1,19.9-8.1,27.3
		c10.9,14,10.6,28.8,2.2,43.4c-8,13.9-19.3,24.1-36.5,26.8c-0.1,1.7-0.1,3.5-0.2,5.3c-1,17-2.1,33.9-3.1,50.9
		c-0.3,4.6-1.9,7-7.1,6.6c-3.8-0.3-7.7,0.2-11.4,0.9c-4.4,0.9-6.7-0.9-6.8-4.9c-0.3-10.8-0.8-21.6,0-32.3
		C1174.5,59.3,1176.9,49.2,1178.7,38.5z M1154.7-3.4c0.6,12,4.1,21.6,11.5,29.4c5.4,5.6,9.7,6,16.9,2.9c2.6-1.1,5.7-3.6,8.6-0.2
		c7.1,8,12,8.9,21.4,3.5c7.9-4.5,13.7-10.9,18.5-18.6c6.9-11.1,9.4-26.5-3-38.3c-2.6-2.5-2.8-5.2,0.6-6.9c9.7-5,11-15.4,7.8-25.2
		c-5.2-16.1-17.5-23.8-32.8-27.9c-1.5-0.4-3.4-0.2-4.9,0.3c-11.3,4.5-18.5,22.9-8.3,30.8c1.1,0.9,1.9,3.4,1.5,4.7
		c-0.4,1.1-2.8,1.6-4.3,2.1c-4.5,1.6-9.8,2.1-13.3,4.8C1162.1-31.8,1156.4-17.9,1154.7-3.4z M1180.4,99c2.5-0.2,4.2-0.6,5.8-0.4
		c4.5,0.5,6-1.4,6.2-5.8c0.6-14.3,1.3-28.6,2.5-42.8c0.5-6.3-1.5-10.3-7.7-12.8C1182.5,57.4,1177.9,77.5,1180.4,99z"/>
	<path class="st0" d="M556.8,222.8c-10,10.1-16.9,11.8-26.7,6.8c-8.1,5.9-13.9,5.2-18.4-4c-5.2-10.7-9.3-22-13-33.3
		c-2.2-6.7-0.7-13.1,6.1-17.4c0.9-0.6,0.6-3.4,0.6-5.2c0-2.3-0.8-4.9-0.1-7c2.8-8.6,8-15.8,15.9-20.4c3.2-1.9,3.6-3.8,3.2-7.2
		c-0.5-4.1-0.5-8.5,0.6-12.3c0.7-2.5,3.6-6.1,5.7-6.3c2.9-0.2,6.9,1.7,8.8,4c3.7,4.4,1.4,12.8-2.8,15.7c5.5,1.6,11.6,3.2,17.5,5.3
		c5.8,2.1,8.3,7.3,10.7,12.5c0.6,1.3,1.7,3.1,2.9,3.3c14.3,2.7,25,18.6,18.6,38.1c-2.8,8.5-7.8,16.5-12.8,24.1
		C569.1,226.5,564.3,227,556.8,222.8z M559.8,177.1c-0.7-5.5-1-10.2-2.1-14.7c-1.1-4.3-4.8-8.6-8.9-6.8c-7,3-14,2.3-21,3.4
		c-8.9,1.5-12.7,10.1-9.4,20.2c4.3,13.1,9.3,26,14.1,38.9c2.6,7.1,8.7,9.1,14.2,3.8c3.6-3.5,7-8.4,8.1-13.2
		C557.3,198.2,558.3,187.2,559.8,177.1z M567.6,165.2c-1.6,14-3.2,27.8-4.6,41.6c-0.4,3.7-0.1,7.4-0.1,11.4c1.3-0.3,1.9-0.3,2.3-0.6
		c0.6-0.3,1.2-0.7,1.6-1.2c6.7-9,12.8-18.3,14-29.8C582,175.9,576,167.2,567.6,165.2z M522.6,226.5c0.8-3.3,2.4-6,1.7-7.9
		c-3.8-11.5-8.1-22.8-12.4-34.2c-0.4-1.2-2.4-2.6-3.4-2.4c-1.1,0.2-2.1,2-2.8,3.3c-0.4,0.8-0.2,2-0.1,2.9
		c1.6,12.9,6.8,24.5,13.6,35.5C519.8,224.6,520.8,225.1,522.6,226.5z M549.6,148c-9.5-6.2-23.5-3.4-29.3,5.1
		C529.8,151.4,539.3,149.8,549.6,148z"/>
	<path class="st0" d="M939.1,580.9c-0.3-5.7,1.1-10.1,5.3-13.6c5.9-4.8,12.1-8.9,19.8-9.9c3.7-0.5,5.3-1.9,6.4-5.5
		c1.1-3.9,2.8-8,5.3-11.1c1.6-2.1,5.5-4.1,7.7-3.5c2.6,0.7,5.4,3.9,6.3,6.6c1.9,6-3.5,13.1-10.2,14c2.7,1.4,5.2,2.3,7.3,3.8
		c8.6,5.6,14.1,13,13.3,23.9c-0.1,1.4,1,3.4,2.1,4.4c8.8,7.3,12.6,18.5,8.5,29.1c-2.1,5.5-5.2,10.9-9.3,15.1
		c-5.4,5.5-11.8,10.3-18.3,14.5c-7.4,4.7-11.8,3.5-17.1-3.2c-14.6,5-20,4.1-27.8-4.6c-8.5,2.6-13.2,0.1-14.7-8.6
		c-2.2-12.7-2.1-25.5,0.7-38.2C926.1,586.5,930,581.1,939.1,580.9z M945.8,614.5c0,2.4,0.1,5.3,0,8.3s-0.4,6-0.5,9
		c-0.3,7.2,3.8,10.7,10.9,9.2c6.4-1.3,11.3-5.2,14.5-10.6c6.2-10.4,11.9-21.1,17.7-31.7c1.1-2.1,1.6-4.7,2-7.2
		c1.4-8.7-4-13.6-12.7-11.7c-1.5,0.3-3.7,0.1-4.9-0.8c-10.9-8.3-22.6-4-24.7,9.5C946.7,596.9,946.5,605.4,945.8,614.5z M998.5,596.3
		c-6.9,12.3-13.6,24.3-20.2,36.4c-1.8,3.3-3.2,6.8-4.8,10.2c0.4,0.4,0.7,0.7,1.1,1.1c1.8-0.6,3.9-0.7,5.3-1.8
		c6.1-4.6,12.4-9,17.7-14.5c3.3-3.4,5.3-8.4,7-13C1006.5,609.1,1004,598.8,998.5,596.3z M932.7,635.3c2.1-2.3,5-4,5.1-5.8
		c1-12.4,1.5-24.9,2-37.4c0-1.1-1.1-2.9-2.1-3.2s-2.9,0.5-3.6,1.4c-1.1,1.4-1.8,3.2-2.1,5c-2.7,11.8-2.8,23.7-1,35.7
		C931.2,632.1,931.9,633.3,932.7,635.3z M959.2,566.8c9.7,2.2,19.4,4.5,29.8,6.9C982.2,564.2,968.9,561.5,959.2,566.8z"/>
	<path class="st0" d="M1407.2,472.1c-5.8,0.8-14,1.8-22.2,3.2c-1.8,0.3-3.3,2.3-5.1,3.1c-1.6,0.8-3.3,1-5,1.5
		c-0.4-1.8-1.6-3.9-1.1-5.2c3.1-6.8,6.6-13.4,10-20.1c5.8-11.3,11.8-22.4,17.3-33.8c4-8.2,10.1-11.7,19.3-10.7
		c20.8,2.3,42.1,2.5,62.5,6.6c34.7,6.9,60.4,27.5,77.6,58.5c4.9,8.8,3.9,12.6-4,18.8c-12.9,10-25.8,20-38.6,30.1
		c-3.6,2.9-5.8,2.3-8.5-1.3C1484.6,489.5,1450.8,473.8,1407.2,472.1z M1515,517c13-10.1,25.6-20.1,38.5-29.8c3.3-2.5,2.6-4.8,1-7.7
		c-14.7-27.3-36.8-45.6-66.7-54.2c-23.4-6.7-47.8-5.8-71.8-7.7c-2.3-0.2-5.8,2.6-7.1,5c-7.7,14.2-14.9,28.6-22.2,43
		c-0.2,0.4-0.1,0.9-0.1,1.2C1438.6,459.8,1481.2,476.4,1515,517z"/>
	<path class="st0" d="M1146.1,171.7c-0.4,20.7-5.3,34.5-19.8,43.2c-20,12-45.5,4-55.6-17.7c-8.3-18-8.8-36.7-1.8-55.3
		c3-8,8.3-14.3,15.3-19.2c1.3-0.9,2.5-3,2.7-4.6c1.6-14.8,2.9-29.5,4.3-44.3c0.3-3.4,2.2-4.5,5.4-4.2c4.6,0.4,9.3,0.8,13.9,1
		c3.2,0.2,4.6,1.7,4.2,4.8c-0.3,2.6-0.6,5.3-0.9,7.9s-1,5,1.9,7.1c1,0.7,0.9,3.4,0.8,5.1c-0.4,7.3-1.1,14.6-1.4,21.9
		c-0.1,1.4,0.8,3.8,1.9,4.3c12.9,5.2,19.7,15.6,23.8,28C1143.7,158.1,1145.1,167.2,1146.1,171.7z M1135.9,157.9
		c-8.4,8.1-17.5,8.5-27.2,4.8c-5-1.9-9.8-4.2-14.9-5.7c-4.9-1.5-9.8-1.1-14,2.7c-2,1.8-4.7,3-8,5.1c-0.5,8.2,0.8,17.7,4.4,26.8
		c5.4,13.5,17.7,21.9,30.8,21.4c13.8-0.6,25.2-8.9,29.5-21.6C1140.2,180.4,1139.1,169.5,1135.9,157.9z M1072.6,156.3
		c8.4-8.8,17.3-8,26.4-5.2c4.3,1.3,8.2,3.7,12.5,5c3.3,1,6.9,1.7,10.2,1.5c8.5-0.7,12.2-8.5,7.8-15.7c-3.9-6.4-8.9-11.5-16.4-13.8
		c-3.9-1.2-5.8-3.7-5.3-8.3c0.8-7.4,0.9-14.8,1.4-22.2c-4.7,0-9,0-13.7,0c-0.3,6.4-1.1,12.5-0.8,18.6c0.3,6.5-2.8,10.3-7.6,13.7
		C1078.5,135.9,1074.5,144.7,1072.6,156.3z M1099.1,77.4c0,4.7,0,8.7,0,12.7c7.5,0.3,8.2-0.9,7.5-12.2
		C1104.3,77.8,1101.9,77.6,1099.1,77.4z"/>
	<path class="st0" d="M490.2,116.2c-13.7-8.2-16.1-24.3-5.2-33.8c6.7-5.8,16.8-3.5,19.2,4.5c0.8,2.8,1.4,6-2.3,7.1
		c-3.3,0.9-3.9-1.7-4.6-4.4c-0.8-3.3-4.1-4-7.1-1.8c-3.7,2.6-5.5,10.2-3.7,15.2c1.6,4.3,5.1,6.2,11,5.6c6.5-0.7,11.4-4.4,15.8-8.8
		c8.6-8.7,14-19.4,17.8-30.9c2.5-7.7,4.5-15.7,6.7-23.5c0.7-2.6,0.8-5.5,4.7-5.1c3.4,0.4,4.2,2.6,4.6,5.5c0.6,4.3,1.5,8.5,2.5,12.7
		c3.4,15.1,12.8,23.5,27.9,26c4.9,0.8,9.8,1.8,14.6,3.4c12.7,4.1,19.8,13.1,21.5,26.2c1.5,11.1-1.9,20.5-11.1,27.2
		c-9.7,7.2-23.4,3-25.9-7.7c-1.4-5.8,1.8-12.4,7.3-14.3c1.6-0.5,3.7,0.7,5.6,1.1c-0.7,1.7-0.9,4.3-2.2,5.1c-2.7,1.7-4.4,3.9-3.1,6.4
		c1.2,2.3,3.9,4.9,6.3,5.3c5.7,1.1,9.8-2.4,12.7-7c7.6-12,2.3-28.7-11.2-34.3c-5-2.1-10.5-3.3-15.8-4.4
		c-16.9-3.2-28.7-11.9-33.2-29.1c-0.2-0.7-0.7-1.4-0.9-1.9c-3.7,9.1-6.9,18.3-11.3,27c-6.1,12.1-14.8,21.7-27.6,27.7
		c-5.7,2.7-10,8.5-14.4,13.3c-11.9,13.3-19.3,28.7-20.8,46.6c-0.3,3.6,1.6,7.5,3.1,11.1c0.5,1.1,3.1,1.7,4.7,1.7
		c0.9,0,1.8-1.6,2.6-2.5c-0.9-0.6-1.9-1.3-2.8-1.9c-1.6-1.2-3.2-2.5-4.8-3.7c1.7-1.3,3.2-3.3,5.1-3.6c4.3-0.9,8.1,2.3,9.5,7
		c1.3,4.3-0.9,9.1-5.2,11.2c-6,3-13.7,0.2-17.4-6.4c-3.8-6.9-3-14.2-1.4-21.4c4.2-18.7,13-34.8,26.8-48.1
		C488.9,117.7,489.5,117,490.2,116.2z"/>
	<path class="st0" d="M646.3,206.7c4.1-4.4,8.4-10.1,13.7-14.3c9.2-7.2,20.3-6.6,29,0.4c9.1,7.4,12.5,20.1,8.1,30.2
		c-4.3,9.9-15.9,12.6-22.8,5.3c-3.8-4-4.4-10.2-0.9-14.1c1-1.1,3-1.2,4.6-1.8c0.6,1.7,2.1,3.9,1.6,5c-1.6,3.2-1.3,6.1,1.8,7
		c2.2,0.6,6.2-0.3,7.3-1.9c1.9-2.8,3.3-6.8,3-10.1c-0.7-7.8-4.7-13.9-12.4-16.6c-7.6-2.7-13.6,0.7-18.9,5.8
		c-1.2,1.2-2.5,2.4-3.2,3.8c-4.6,9.1-9,18.4-13.6,28c4,0,6.7-0.6,9.1,0.1c3.6,1,7.9,2.1,10,4.7c6.8,8.3,10.1,18.1,7.3,28.9
		c-2.9,11.2-17.6,15.9-25.5,8.2c-1.1-1.1-1-3.6-1.4-5.5c1.9,0,4.2-0.7,5.7,0.1c6.3,3.6,13.1,0.7,14.3-6.5c1.2-7.1-1-13.6-5-19.3
		c-2.6-3.7-6.6-4.2-10.8-2.8c-9.5,3.2-15.4,10.2-19.4,19c-4.2,9.1-5,18.9-4.3,28.8c0.2,2.7,1,5.4,0.6,7.9c-0.3,1.9-2.1,3.5-3.3,5.2
		c-1.2-1.4-3.4-2.7-3.6-4.3c-2.4-16.8-1.1-32.9,7.6-48.3c5.6-10,11.6-20.1,12.8-32.1c1-10.1,0.7-20-3.3-29.4c-1-2.4-3.9-5.7-5.9-5.6
		c-2.5,0-6.1,2.5-7.2,4.8c-2.4,5.4-4.4,11.2-5,17c-0.7,6.3,3.9,8.8,10,7c1.3-0.4,4.3,0.6,4.5,1.3c0.3,1.6-0.2,4-1.4,5
		c-4.7,4.1-13.8,2.3-17.5-3.7c-1.7-2.9-3.4-6.8-2.8-9.8c1.4-7.4,3.4-14.8,6.5-21.7c2.4-5.4,7.7-8.3,14-7.8
		c6.3,0.5,9.9,4.8,11.6,10.3C643.2,192.4,644.7,200,646.3,206.7z"/>
	<path class="st0" d="M1343.5,407.4c-9.5-7.2-20.3-6-27.4,2.8c-4,4.9-4.1,5-8.8,0.9c-5.4-4.7-11.3-2.7-13.9,4.3
		c-0.6,1.7-2.7,2.8-4,4.1c-1.1-1.5-2.9-3-3.1-4.6c-4-27.3,16.6-53.9,44-57.2c25.4-3.1,49.5,11.4,56.9,34.3
		c4.1,12.8,0.6,26.6-9.1,33.9c-1.7,1.3-4.3,2.3-6.1,1.9c-1.2-0.3-2.1-3.3-2.4-5.3c-1-6.4-4.7-10.8-10.7-12.4
		c-4.1-1.1-7.3-0.3-10.3,3c-14.1,16-21.6,35.1-25.2,55.7c-2.4,14.1-3.5,28.4-5.1,42.6c-0.2,1.3,0.2,3-0.5,3.9
		c-0.9,1.2-2.6,2.4-3.8,2.3c-1.1-0.1-2.9-2.1-2.9-3.1c1.9-36.3,5.4-72.3,29-102.5C1340.9,410.5,1342.1,409.1,1343.5,407.4z
		 M1376.9,416.2c4.8-5.6,5.9-15,2.4-24.2c-6.5-16.7-24.2-28-43.5-27.6c-18,0.3-34.6,12.8-40.7,30.8c-0.8,2.4-1.3,4.9-2.1,8.1
		c7-3.2,12.8-2.5,18.3,1.1c8.4-8.1,18.2-11.6,28.9-7.2c6.7,2.7,12.8,6.2,20.4,5.8c1.9-0.1,4.3,1.2,5.8,2.5
		C1370.1,408.8,1373.5,412.6,1376.9,416.2z"/>
	<path class="st0" d="M1319.2,188.1c12.4,1.3,17.6,5.3,19.2,14.7c1.9,11.8-4.1,19.5-21.1,27.2c-1.3,17.7-10,27-23.7,25.4
		c-11.4-1.3-16.6-9.8-14.3-23.8c-10.8-3.3-20.2-8.6-19.8-21.5c0.3-11.8,7.9-18.1,19.2-19.8c1.1-14.6,7.8-22.2,19.6-22.7
		C1309.3,167.2,1316.5,174.2,1319.2,188.1z M1310.1,223.3c7.9-0.8,14.2-3.3,18.6-9.3c3.6-4.8,3.2-12.2-0.5-15.7
		c-3.6-3.4-7.3-3-13.3,1c-1.1,0.8-3.7,1.1-4.4,0.4c-1-1-1.1-3-1.2-4.7c0-0.9,0.9-1.8,1.2-2.7c1.9-5.6-0.4-12.3-5.2-15.4
		c-4.5-2.9-11-2.3-15.3,1.4c-4.3,3.7-5.5,9.8-2.6,15c0.8,1.4,3.3,2.9,4.8,2.7c7.6-1,14,1,18.5,7.2
		C1315.5,209.5,1314.7,216,1310.1,223.3z M1308.3,227.2c-5,1.1-9.4,2.9-13.8,2.8c-4.9-0.2-7,2.1-8.3,5.9c-1.2,3.7-0.5,7.4,2.7,9.9
		c4.1,3.2,8.5,3.3,13.1,1C1307.5,244,1312.5,234.3,1308.3,227.2z M1286.9,212.3c0,5.8,4.1,10.3,9.3,10.4c5.5,0,10.5-5.2,10.3-10.7
		c-0.2-5-4.7-8.9-10.2-8.8C1290.7,203.3,1286.8,207.1,1286.9,212.3z M1283.5,224.1c-5.3-7.9-5.7-15.8,0-23.6
		c-4.5-3.4-8.4-2.4-12.1,0.4c-4.1,3.1-5.8,8.7-4.1,13.4C1269.3,220.1,1275.8,224.2,1283.5,224.1z"/>
	<path class="st0" d="M878.7,344c10-6.8,19.1-6.1,27.8,2.2c8.9,8.5,10.1,17,3.9,27.2c9.4,10.3,8.7,21.4-4.3,32.8
		c-4.5,3.9-10.3,6.7-16,8.8c-7.7,2.8-13.2,0.5-18.8-6.3c-13.7,5.7-22.2,3.6-29.4-7c-8-11.9-6.2-23.7,5.5-35.1
		c-5.4-9.7-4.7-18.5,6.7-26.7C862.4,333.8,870.2,335.4,878.7,344z M861.8,373.5c-3.3-0.4-6.8-1.8-9.4-0.8c-5.9,2.2-8.4,7.6-8,13.7
		c0.5,7.5,3.5,14,10.8,17.3c5.5,2.5,9.9-0.2,14-3.8c3.8-3.4,5.8-2.8,7.6,1.9c2.2,6,5.3,7.8,11.5,6.2c8.1-2.1,14.4-6.9,18.6-14.1
		c4-6.7,2.9-11.3-3.5-15.8c-4.3-3-4.4-4.4-0.6-8c4.9-4.6,5.8-9.4,1.8-14.6c-2.4-3.2-5.8-6-9.4-7.8c-5.5-2.8-9.7-0.8-12.9,4.6
		c-1.1,1.8-3.1,2.9-4.7,4.4c-1.3-1.5-2.9-2.9-3.8-4.7c-1.9-3.8-3.5-7.9-8.4-8.2c-5.1-0.3-8.8,2.5-11.7,6.6c-3.3,4.8-2.7,10,2.2,13
		c4.7,2.8,9.5,6.5,15.9,3.2c2.3-1.2,5.6-1.1,8.3-0.7c9.7,1.5,13.7,10,8.9,18.7c-3.7,6.7-10.8,9.5-17.9,7
		C863.4,388.8,860.3,383.3,861.8,373.5z M877.4,372.8c-4.7,0-8.8,3-8.7,6.4c0.1,3,3.8,5.9,7.6,5.9c3.7,0,7.6-3.8,7.5-7.4
		C883.6,373.7,880.5,373.2,877.4,372.8z"/>
	<path class="st0" d="M438.7,457.2c2.9-13.1,9.4-20.6,18.5-21.7c7.3-0.8,11.7,2.7,16.3,13.3c10.6-3.3,16.4-1.8,21.7,6
		c6.2,8.9,6.2,20.8-0.2,28.4c-1.9,2.3-4.3,4.1-6.5,6.2c2.5,16.1-7,29-23.3,31.6c-9.2,1.5-17.4-3.4-20.2-12.4c-1-3.1-2.2-4.7-5.6-5.8
		c-13.5-4.2-21.4-24.4-14.9-37C427.5,460,432.8,458,438.7,457.2z M440.1,463.6c-9.6,4-11.6,7.2-10,16.5c1.4,8.4,7.2,15.8,13.6,15.9
		c5.4,0.1,6.6,2.7,7.3,7.2c1.5,8.5,7.2,12.2,15.2,10c5.8-1.6,10.5-5,13.7-10.2c2.3-3.8,3.1-7.9,0.7-11.8c-2.6-4.1-1.3-6.1,2.7-8
		c8-3.9,11-12,7.9-20.2c-3.7-9.8-10.1-11.2-17.7-4c-1,1-3,1.8-4.1,1.5c-1.2-0.4-2.2-2.2-2.6-3.6c-0.9-3-1-6.3-2-9.2
		c-1.2-3.6-3.9-5.2-7.8-4.4c-7.6,1.6-12.6,11.7-9,18.6c1.8,3.5,3.6,6,8.4,3.1c5.1-3.1,12-1.3,15.5,2.9c3.3,3.9,3.2,10.5-0.3,15.4
		c-3.8,5.4-11.2,7.5-17.4,5.1c-5.3-2.1-7.6-6.4-7-12.9c0.1-1.3-0.3-2.9-1-3.9C444.4,468.8,442.2,466.3,440.1,463.6z M458.1,482
		c5.2,0,9.4-3.5,8.7-6.7c-0.4-1.7-2.9-3.9-4.7-4.1c-3.8-0.5-8.3,3.6-7.5,6.6C455,479.7,457.3,481.1,458.1,482z"/>
	<path class="st0" d="M1227.2,510.1c3.5-5.7,7.2-12.8,11.9-19.1c5.1-7.1,11.4-13.3,20.6-14.7c3.6-0.5,7.9-0.1,11,1.4
		c13.4,6.7,22.3,33.9,3.9,47.5c-5.8,4.3-12.5,4.8-18.8,1.2c-6.5-3.7-9.3-9.8-8.7-17.2c0.6-7.8,7.7-11.6,14.5-7.8
		c1.2,0.7,2.6,3.5,2.1,4.1c-0.9,1.3-3,2.6-4.5,2.5c-4.6-0.3-5.8,0.7-4.6,5.3c2,7.8,9.9,10.4,16.5,5.4c10.3-7.8,7.8-29.5-4-34.8
		c-4.8-2.1-9.3-0.5-13.1,2.5c-12.9,10.4-20.4,23.9-21.7,40.5c-0.2,2.7,0.9,5.8-3.3,6.7c-0.9,0.2-1.4,2.5-1.8,3.8
		c-3.4,11.2-9,21.1-17.4,29.3c-6.1,5.9-13.3,9.7-22.1,7.3c-1.7-0.5-4.2-2.9-4.2-4.2c0.2-3.1,2.9-3.6,5.7-2.7
		c5.6,1.6,10.2-0.8,14.1-4.4c10.6-9.7,16.8-21.9,18.7-36c1.4-10.1-4.5-18.1-14.1-20.6c-4.6-1.2-8.2,0-10.9,3.9
		c-2.5,3.8-2,9.3,1,12.6c1.8,2,3.5,2.5,5.1-0.2c1.5-2.4,3.7-4.3,5.8-1.7c1,1.3,0.7,4.8-0.3,6.4c-3.7,5.8-10.5,6.2-15.3,1.3
		c-5.8-5.8-6.7-15.4-2.3-22.6c4-6.5,12.5-9.7,20.1-6.2C1216.8,502.3,1221.9,506.6,1227.2,510.1z"/>
	<path class="st0" d="M1027.8,45.5c-13.1-13.4-4.5-29.1,10.8-32.6c2.4-0.5,4.8-1.9,6.9-3.3c6.6-4.4,14.1-4.7,20.6-1.7
		c8.5,4,14.6,2.8,21.9-2.8c8.7-6.6,19.1-5.1,27.7,1.8c7.9,6.4,11.3,17.1,8.2,25.9c-3.2,9-12.8,15.4-23.4,15.6c-1.3,0-2.6,0-3.9,0
		c-4.2,13-20.4,24.6-34,24c-3-0.1-4.6,0.4-6.2,3.3c-5,9.3-15.5,13-24.7,9c-9.2-4-14.1-14.1-11-24
		C1022.4,55.6,1025.3,50.8,1027.8,45.5z M1100.2,41.5c7.5-0.6,14.3-5,16.6-10.9c2.3-6,0.1-13.1-5.4-17.9c-5.7-5-12.2-5.8-18.9-2
		c-3.6,2.1-6.9,4.7-9.9,7.5c-2.8,2.5-4.9,2.6-8.4,1c-5.5-2.5-11.5-4.3-17.4-5.4c-3.3-0.6-7.5-0.5-7.8,5.1c-0.1,2.8-2.4,3.7-5.2,2.4
		c-4.9-2.3-11.5,0.6-14.1,6.1c-2.5,5.3-0.3,10.4,5.5,12.9c4,1.7,4.5,3.7,1.8,7.2c-2.1,2.7-4.7,5.3-6.2,8.4
		c-1.8,3.7-3.4,7.7-3.6,11.7c-0.3,5.7,5.4,10.9,11.3,11.2c5.9,0.4,11.4-4.2,12.6-10.5c1.3-6.6,1.9-6.8,8.1-4.2
		c2.3,1,5.7,1.7,7.6,0.7c6.7-3.4,13.2-7.4,19.4-11.8c3-2.1,3.8-5.6,0.6-9.1c-0.8-0.9-0.9-3.7-0.1-4.6c0.8-0.9,3.2-1.2,4.6-0.8
		C1094.4,39.2,1097.3,40.5,1100.2,41.5z"/>
	<path class="st0" d="M1069.1,711.1c-0.3-0.9-1-1.8-0.9-2.6c0.1-1.7,0.5-3.4,0.8-5.1c1.9,0.5,4.5,0.3,5.5,1.5
		c3.9,4.5,1.8,11.9-3.8,14.1c-1.5,0.6-3.2,1-4.8,1.2c-7.5,0.9-15.8-2.9-18-8.2c-2.3-5.4,0.4-12.7,6.9-17.8
		c10.6-8.4,22.9-8.2,35.3-6.2c5.6,0.9,11,3.5,16.8,5.4c1.3-8.5,7.1-13.4,16.1-14.6c11.5-1.7,20.8,7.1,18.8,17.8
		c-0.3,1.6-1.9,4.1-3.2,4.3c-3.1,0.4-6.7,0.4-9.5-0.8c-2.3-1-1.1-4.9,1.5-5.7c1.1-0.3,2.3-0.2,3.6-0.3c0.4-4.2-1.8-6.3-5.2-7.5
		c-4.5-1.5-10.2,0-12.8,3.3c-2.7,3.4-2.3,6.9-0.1,10.2c1.2,1.7,2.9,3.4,4.8,4.2c12,4.8,23.8,4.7,34.8-2.6c7.5-5,9.2-10.6,5.6-19
		c-2.5-5.8-6.2-11-8.9-16.7c-2.9-6.1-5.3-12.5-7.7-18.8c-0.6-1.5-0.8-3.5-0.2-4.9c0.8-1.8,2.4-4.2,4.1-4.5c3.3-0.6,2.8,2.4,3.4,4.7
		c1.2,5.3,2.5,10.7,4.7,15.6c3.1,6.8,7.5,13,10.6,19.8c6.6,14.5,2.6,25.8-11.8,32.7c-11.3,5.4-23.1,5.7-35,1.9
		c-2-0.7-4.5-1.5-5.6-3.1c-3.7-5.2-9.6-6.8-14.6-9.7c-12-6.8-24.7-7-37.5-1.8c-0.9,0.4-1.8,0.9-2.5,1.6c-2.8,2.8-7.4,5.1-5.2,10.1
		C1056.5,712.9,1064.1,713.7,1069.1,711.1z"/>
	<path class="st0" d="M396.4,441.7c3.3-5.5,6-11.4,9.9-16.1c6.7-8.1,17.4-9.9,25.2-5.2c5.2,3.1,7.7,8.4,6.6,13.9
		c-1,5-4.4,8.3-9.5,8.8c-4.2,0.5-7.8-0.9-9.6-4.7c-0.6-1.3,0-3.8,1-5.1c0.5-0.6,3,0.2,4.6,0.5c1.7,0.3,3.4,0.8,5.1,1.2
		c0.1-2.1,1.2-5,0.2-6.2c-1.5-1.8-4.3-3.3-6.7-3.3c-8-0.2-13,4.7-16,11.5c-4.2,9.4-4.1,19.4-4.1,29.4c0,6.7,0,13.3,0,20
		c0,2.8-0.7,5.2-4.1,5c-3.4-0.1-3-2.8-3.1-5.2c-0.3-8.8,0.2-17.7-1.1-26.4c-1.8-13.1-8.3-23.5-21.1-28.8c-7.7-3.1-14.8-1.8-20.8,3.9
		c-5.8,5.5-8.1,12.3-5.7,20c2.5,7.9,8.2,12.7,16.5,14.2c6.3,1.1,13.4-2.3,14.6-7.7c0.6-2.8-0.2-6.7-1.8-9c-2-2.7-5.4-2.2-8.6-0.5
		c-1.4,0.8-3.7-0.1-5.6-0.2c0.6-2,0.6-4.7,2-5.8c4.3-3.7,11.6-3.4,16.3,0c5.4,3.9,7.4,11.1,5,18c-3.3,9.6-14.2,15-25,12.1
		c-11-3-18.6-9.8-20.9-21.2c-2.1-10.7,1.5-19.8,9.9-26.6c8.8-7.1,18.6-7.4,28.6-3C386.2,428.6,392.2,434.5,396.4,441.7z"/>
	<path class="st0" d="M364-122.2c-2.7-13.2-1.5-25.4,6.9-35.5c3.9-4.6,9.4-7.7,14.1-11.6c3.9-3.2,7.6-6.7,11.6-9.9
		c1.1-0.9,3.2-1.9,4.1-1.4c1.2,0.7,2.6,2.9,2.4,4.1c-3.1,13.9-5.7,28-10,41.7c-3.7,11.9-11.3,21-24.1,24.7c-1.1,0.3-2.4,1.3-2.8,2.3
		c-3.1,7-8.6,11.8-14.9,15.7c-9.6,6-19.2,11.9-29,17.6c-1.6,1-3.9,0.8-5.9,1.2c-0.3-2.1-1.4-4.5-0.9-6.4c3.1-10.9,7.1-21.5,15.2-30
		c7.6-8,16.6-12.6,27.9-12.3C360.1-121.8,361.8-122,364-122.2z M392.5-164.4c-19.6,8.3-28.9,30.4-18.7,44.3
		C388.6-131.3,389.5-148.1,392.5-164.4z M360.9-113.8c-15.4-2.5-31.7,11.1-35.4,29.4c10.4-6.9,20.2-13,29.4-19.8
		C357.6-106.3,358.8-110.3,360.9-113.8z"/>
	<path class="st0" d="M828,284.2c1.3,0.9,2.8,1.4,3.4,2.4c1.1,1.7,1.6,3.8,2.4,5.7c-2,0.2-4.6,1.3-6,0.4c-4.9-3.1-9.3-2.7-14.1,0.4
		c10.1,16.8,5.2,33.1-1.7,49.2c-1.4,3.2-4.2,3.8-6.4,1.4c-8.8-9.8-17.8-28.4-10.5-44.2c0.5-1.1,0.8-2.3,1.6-3.1
		c5.1-4.7,3.1-8.4-0.2-13.5c-9.5-14.4-9.6-29.7-1.5-44.9c0.8-1.5,2.8-3,4.4-3.1c1.1-0.1,3,1.9,3.6,3.4c3.8,9.4,7.6,18.8,10.7,28.5
		c1.6,5.2,1.7,11,2.4,16.5c6.6-1.1,12.8-11.1,11.5-19.8c-0.1-0.5-0.3-1-0.3-1.5c-0.2-2.5-2-5.7,2-6.6c4.3-1,4.8,2.6,5.4,5.5
		C836.4,269.6,833.5,277.2,828,284.2z M807.3,332.8c5.8-11.7,7-29.9-0.8-36.4C797.4,304.6,797.8,321.7,807.3,332.8z M798.9,248.6
		c-4.3,12.6-0.8,27.6,7.5,34.4C811,276.6,806.8,267.8,798.9,248.6z"/>
	<path class="st0" d="M952,712.1c3.5-0.5,6.2-0.9,9-1.2c0.1-0.1,0.3-0.4,0.3-0.7c0.6-13.2,5.3-21.6,23.2-25.3
		c6.5-1.3,13-2.7,18.2-7.5c0.9-0.8,3.6-0.7,4.7,0c0.9,0.6,1.3,3.2,0.7,4.3c-5.3,9.8-10.4,19.7-16.5,29c-7.6,11.7-16.8,13.7-29.6,7.6
		c-0.9-0.4-2.4,0.2-3.6,0.2c-2.7,0.1-6,1.1-8.1-0.1c-21.8-12-36.9-29.6-43.1-54.1c-0.9-3.4,0.8-4.9,4-5.5
		c13.3-2.3,27.4,4.4,33.8,16.3c4.8,8.8,6.5,18.4,6.9,28.3C952.1,706.1,952,708.7,952,712.1z M916,666.5
		c3.2,14.5,17.5,34.2,28.5,39.4C945.4,681.5,933.5,665,916,666.5z M994.2,690.1c-4.4,1.1-8.1,1.9-11.7,2.9
		c-11.1,3.2-14.6,8.6-13.2,20.3C978.6,717.7,986.9,708.8,994.2,690.1z"/>
	<path class="st0" d="M420.1,335.5c0.9-10.1,1.4-20.3,2.9-30.3c0.8-5.1,2.7-10.4,5.2-14.9c8-14.1,26.6-14.3,35.3-0.7
		c5.6,8.8,7.1,18.9,8.4,29c2.5,20.1-1.1,39.4-9.1,58c-1.3,3-3,6-4.9,8.7c-7.5,10.7-20.5,10.8-28.4,0.2c-5.2-7-6.1-15.4-7.3-23.6
		c-0.5-3.6-0.9-7.3-1.1-10.9c-0.2-5.2,0-10.3,0-15.5C420.8,335.6,420.4,335.5,420.1,335.5z M427.5,336.4c0.5,7.6,0.7,15.4,1.8,23.2
		c0.9,6.4,2.4,12.7,4.4,18.9c1.5,4.5,5.3,7.4,10.2,7.8c4.9,0.3,7.2-3.5,9.2-7.3c10.2-18.8,13.7-38.9,11.2-59.9
		c-1-8-3.3-15.9-6.1-23.5c-2-5.4-6.7-8.6-13-8.1c-5.6,0.4-10.5,4.3-12.2,10.2c-1.6,5.6-3,11.3-3.8,17.1
		C428.2,321.8,428.1,328.9,427.5,336.4z"/>
	<path class="st0" d="M900.5,10.4C907.6-1,916.6-6.8,928.5-8c5.8-0.6,7.2,1.1,5.9,6.8c-1.6,7-2.6,14.1-4.6,21
		c-3.2,11.2-9.5,19.8-21.9,22.1c-0.5,0.1-1,0.3-1.4,0.5C892,48.8,878.8,44.2,873,29c-4.4-11.7-6.8-24.3-10-36.5
		c-0.6-2.2-1.3-4.5-1.5-6.8c-0.1-1.5,0.1-3.6,1.1-4.4c1-0.8,3.2-0.7,4.5-0.2c4.8,1.7,9.4,4.1,14.3,5.7
		C892.4-9.8,898.8-2.5,900.5,10.4z M898,38.1c-1.9-10.5-3.5-20.5-5.5-30.4c-1.1-5.6-4-10.3-9.6-12.4c-3.8-1.5-7.7-2.7-12.5-4.4
		c2,8.8,3.5,16.9,5.8,24.8c1.4,4.9,3.3,9.8,5.8,14.2C885.2,35.5,890.3,38.8,898,38.1z M925.9,0.1c-15.8,2.9-26.1,21.4-19.3,34.3
		C917.9,33.7,924.7,19.3,925.9,0.1z"/>
	<path class="st0" d="M1211.1,176.2c-1.3,16.5-2.4,32.8-3.9,49c-1,10.3-6,13.4-16,11.3c-3.1-0.7-6.3-1.4-9.3-1
		c-4.3,0.6-5.8-1.1-6.2-4.9c-1.5-12.4-3.1-24.8-4.6-37.2c-0.8-6.6-1.6-13.2-2.4-19.8c-0.4-2.9,0.1-4.9,3.6-5.1
		c1.2-0.1,2.2-1.3,3.5-1.7c6.1-2,12.1-4.7,18.3-5.7c7.7-1.2,12,5.4,16.7,10C1211.7,172,1211,174.6,1211.1,176.2z M1201.4,202.8
		c-7.7-0.6-14.5-1.2-22-1.8c1,8.5,1.4,16.5,3.1,24.2c1.1,5.1,7,2.8,10.6,4.1c1.7,0.6,4.1-0.7,6.2-1.3c0.4-0.1,0.6-1.2,0.7-1.8
		C1200.4,218.6,1200.9,211,1201.4,202.8z M1202.1,195.5c0.4-6.1,0.8-11.5,1.2-17.2c-9.1,1.3-17.5,2.5-26.3,3.7c0.3,2.8,0.4,6,1.1,9
		c0.2,1,1.8,2.3,2.9,2.4C1187.8,194.3,1194.6,194.8,1202.1,195.5z M1179.8,172.5c0.1,0.6,0.2,1.2,0.4,1.8c6.4-1.1,12.8-2.1,19.2-3.2
		c-0.1-0.5-0.2-1-0.2-1.5C1192,166.4,1185.9,169.7,1179.8,172.5z"/>
	<path class="st0" d="M354.7,343.2c3.5,8,7.4,15.3,9.9,23c2,6.3,3.7,13.3,3.3,19.8c-0.6,9.5-9.9,15.5-18.6,13.5
		c-4.5-1.1-7.4-3.9-8.2-8.4c-0.9-4.8,0.2-9.2,4.6-11.7c1.7-1,5.3-1,6.5,0.1c2.3,2.1,0.8,4.2-1.8,5.9c-1.2,0.7-2.3,3.2-1.9,4.4
		c0.5,1.3,3.2,3,4.1,2.6c2.7-1.1,6.6-2.8,7-5c1-4.6,1.4-10.1-0.2-14.5c-4-11.1-8.9-21.9-14.2-32.4c-10.2-20.5-5.6-39.5,5.3-57.8
		c2.4-4,6.5-7.1,10.2-10.1c1-0.8,3.6,0.3,5.5,0.6c-0.4,1.7-0.2,4.2-1.3,5c-13.8,10.5-17,25.6-18.1,41.6c-0.2,2.7,0.6,5.7,1.6,8.2
		c2,5.3,6.5,8.1,11.1,7.5c4.7-0.6,9.8-5.4,10.4-10.2c0.2-1.8-0.3-4.7-1.4-5.3c-1.5-0.8-4.1-0.2-5.9,0.6c-1.8,0.7-2.9,2.9-4.7,3.6
		c-1.5,0.6-3.5,0.2-5.3,0.3c0.1-1.9-0.2-4,0.5-5.7c0.6-1.4,2.4-2.2,3.7-3.2c6.2-4.6,12-5.1,16.5-1.5c4.3,3.5,5.5,10.7,2.3,17
		C371.5,339.4,364.7,343.4,354.7,343.2z"/>
	<path class="st0" d="M589.2,369.3c-7.3-1.7-13.9-3.3-20.9-4.9c-1.8,7.5-3.4,14.8-5.1,22c-0.6,2.5-0.8,5.8-4.7,5
		c-4.1-0.8-3.1-4-2.4-6.8c7-30.8,14-61.6,21-92.4c0.6-2.5,1.2-5.6,4.4-4.7c1.6,0.4,3.4,3,3.6,4.8c4.7,33.2,9.2,66.5,13.7,99.8
		c0.4,2.6,0.9,5.8-3.1,6c-3.7,0.2-3.9-2.9-4.2-5.6C590.7,384.8,590,377.1,589.2,369.3z M588.5,361.6c-2.5-17.1-4.8-33.3-7.1-49.5
		c-4.2,13.7-7.4,27.5-10.6,41.2c-0.3,1.1-0.4,2.2-0.7,3.6c1.2,0.4,2.3,0.9,3.4,1.2C578.2,359.1,582.8,360.2,588.5,361.6z"/>
	<path class="st0" d="M1471.8,377.7c-6.7,4-12.7,8.3-19.3,11.2c-10.5,4.7-21.6,6-32.3,0.7c-9.8-4.9-14.5-12-5.7-22.5
		c1.8-2.2,3.6-4.4,5.6-6.3c10.3-10,28-12.9,39.7-1.9c1.1,1,2.3,1.9,3.6,2.7c6.3,4.4,8.8,3.8,12.4-3c0.6-1.2,1-2.7,2-3.4
		c1.7-1.3,4-3.3,5.6-2.9c1.9,0.5,3.6,2.9,4.9,4.8c0.7,1.1,0.6,2.9,0.5,4.4c-0.3,6.5-0.5,13-1.1,19.4c-0.2,1.9-1.3,5.1-2.4,5.3
		c-1.8,0.4-4.2-0.9-6-2.1C1476.4,382.1,1474.1,379.7,1471.8,377.7z M1438.5,385.1c11.2-1.3,23.1-7.7,27.1-14.4
		c-9.3-3.5-15.9-14.1-28.6-10.7C1443.2,368.1,1443.7,376.2,1438.5,385.1z M1430.5,385.2c1.5-3.8,3.6-7.5,4.2-11.4
		c0.6-4.3-1.8-7.9-6-10.4c-1.4,1.1-3.1,2-4.1,3.4c-2.6,3.5-7.3,7.7-6.7,10.8C1418.8,382.7,1424.9,384.4,1430.5,385.2z M1481,366.5
		c-0.3-0.1-0.6-0.2-0.9-0.4c-1.2,1.8-2.5,3.6-3.9,5.6c1.5,1.1,2.7,2,4.4,3.3C1480.7,371.6,1480.8,369,1481,366.5z"/>
	<path class="st0" d="M611.7,35.6c0.1-1.9,0.1-3.4,0.3-4.9c1.3-8.9,9.8-12.8,17.1-7.6c1,0.7,1.7,3.8,1.3,4.1c-1.5,1.1-3.8,2.4-5.3,2
		c-3.8-1.1-6-0.6-6,3.6c0,2,0.3,4.9,1.6,5.9c1.1,0.9,3.9-0.1,5.8-0.6c3.7-0.9,7.3-2.2,11-3.1c5.6-1.4,7.1-3.8,6.2-9.8
		c-0.3-0.1-0.7-0.3-0.9-0.2c-2.3,1.6-4.9,3.2-6.7-0.3c-1.9-3.5,1.1-5.2,3.6-6.5c4.2-2.3,8.6-0.5,10.7,4c3.6,7.6-0.9,17.2-9.1,19.5
		c-5.1,1.4-10.2,2.9-15.2,4.5c-6.2,1.9-9.7,0.5-13.7-6.1c-3.1,2.8-4.1,5.9-2.1,9.6c2.1,3.9,8.3,6,12.7,4.4c1.2-0.4,2.5-1.1,3.4-2
		c6.5-6.8,14.9-8.9,23.8-10.5c4.4-0.8,8.8-2.1,12.7-4.2c7.7-4.2,11.2-13,8.9-21.4c-0.9-3.5-2.7-6.2-6.7-7.3c-1.3-0.4-2.1-2.6-3.2-4
		c1.6-1,3.3-2.9,4.9-2.8c5.8,0.4,9.1,4.4,11.1,9.5c5.4,13.8-0.8,28.3-14.7,34.3c-4.2,1.8-8.9,3.1-13.4,3.7
		c-7.2,0.9-13.3,3.3-18.7,8.4c-5.6,5.3-14.3,5.6-21.4,1.6c-5.6-3.2-8.5-9.1-7.6-15.6C603,37,605.6,34.8,611.7,35.6z"/>
	<path class="st0" d="M1347.1,290.1c3.8,3.3,8.5,6.4,12,10.7c5.2,6.5,5.6,14.2,1.6,21.6c-4,7.4-10.4,11.6-19,11.8
		c-7.5,0.2-11.4-3.8-11.3-11.4c0.3-14.1,0.7-28.3,1.1-42.4c0.3-9.8,0.5-19.6,0.8-29.4c0.3-7.2,3.7-9.4,10.5-7
		c10.7,3.8,17.3,17,13.4,28.8C1354,278.9,1350.1,284.5,1347.1,290.1z M1337.9,297.5c0,8.1-0.3,15.9,0.1,23.6
		c0.3,5.1,3.5,6.6,8.3,4.5c6.5-2.7,10.3-8.8,9.1-14.9C1354.1,303.2,1347.4,297.8,1337.9,297.5z M1339.3,285.9
		c6.9-6.9,12-13.8,9.9-23.6c-1.1-5.1-3.5-9.5-9.9-11.1C1339.3,262.8,1339.3,273.8,1339.3,285.9z"/>
	<path class="st0" d="M1571.3,35.3c4.6-22.3,9.1-44.6,13.7-66.9c0.1-0.5,0-1.2,0.3-1.4c1.4-1.5,3.1-4.1,4.4-4c3,0.2,3.4,2.8,2.8,5.7
		c-2.9,13.7-5.9,27.3-8.5,41.1c-3.1,16.5-6,33.1-8.9,49.6c-0.4,2.5-0.6,5.6-4,4.9c-1.6-0.4-3.4-2.9-3.8-4.7
		c-5.6-31.8-10.9-63.6-16.3-95.4c-0.1-0.7-0.1-1.3-0.2-2c-0.7-3-0.2-5.8,3.2-5.9c1.3,0,3.5,2.7,3.8,4.5c3.9,22.1,7.6,44.3,11.3,66.4
		c0.5,2.7,1,5.5,1.6,8.2C1570.9,35.3,1571.1,35.3,1571.3,35.3z"/>
	<path class="st0" d="M394.8,278.2c2.8,9.4,5.7,17.7,7.7,26.2c4.9,20.3,9.8,40.7,13.8,61.2c1.1,5.5-0.3,12-2.1,17.5
		c-2.2,6.8-7.8,10.7-15.2,11.1c-7.2,0.4-11.8-3.8-15-9.7c-1-1.8-2.1-3.5-2.5-5.4c-0.3-1.6,0.5-3.5,0.8-5.2c1.9,0.8,4.3,1.1,5.6,2.4
		c1.6,1.6,2,4.2,3.2,6.1c3.9,6.1,10.5,6.2,14.8,0.4c3.5-4.7,4.2-10.1,3.3-15.7c-3.6-22.5-8.1-44.8-15.8-66.4
		c-3.5-9.8-6.6-19.7-3.7-30.2c2-7.4,6.4-12.4,14.2-13.7c5.4-0.9,9.9,1.1,13,5.6c2.6,3.8,3.8,8.1,1.1,12.1c-0.9,1.5-3.6,1.8-5.5,2.7
		c-0.5-1.7-0.9-3.4-1.4-5.1c-0.6-2.3-0.8-6.3-1.9-6.6c-2.6-0.7-7-0.7-8.4,0.9C398.2,269.7,396.8,274.2,394.8,278.2z"/>
	<path class="st0" d="M1040.2,445.9c-1.1,5.3-2.7,15.6-5.3,25.7c-1,4-3.5,8-6.1,11.3c-4,5.1-9.8,6.9-16.2,5.3
		c-5.9-1.5-8.6-6.3-9.4-11.8c-1.3-9-2.4-18.2-2.5-27.3c-0.2-11.1-0.1-22.3,1.4-33.3c1.5-11.3,9-16.9,18.2-15.6
		c6.3,0.9,10.5,4.7,13.5,10C1039.1,419.8,1039.7,430.2,1040.2,445.9z M1007.7,444.9c0.2,0,0.3,0,0.5,0c0,3.7-0.2,7.3,0,11
		c0.4,6,0.8,12,2,17.9c0.6,2.7,2.9,6.6,5,7c2.5,0.5,6.4-1.4,8.5-3.4c2.3-2.3,4.1-5.9,4.8-9.1c1.8-9.6,3.7-19.3,4.1-29.1
		c0.3-8.9-0.6-18.1-5.4-26.1c-2.4-4-5.8-6.7-10.7-5.6c-4.8,1.1-6.4,5.6-6.8,9.6C1008.4,426.3,1008.2,435.6,1007.7,444.9z"/>
	<path class="st0" d="M1709.2,39.5c0.6-16.6,1.3-33.2,1.9-49.7c0.1-1.7-0.6-3.5,0-4.9c0.7-1.7,2.4-3,3.6-4.5c1.1,1.5,3.3,3,3.3,4.4
		c-0.3,15.3-0.6,30.6-1.5,45.8c-0.4,6.9-2.1,13.8-3.5,20.6c-0.4,1.8-2.3,3.3-3.5,4.9c-1.6-1.2-3.8-2.2-4.6-3.8
		c-5.4-11.1-10.4-22.3-15.6-33.5c-0.4-0.8-0.8-1.6-2-2.3c0.4,8.5,0.9,17,1.3,25.6c0.1,2.7,0.7,5.4,0.1,7.9c-0.3,1.4-2.5,2.5-3.9,3.7
		c-1-1.2-2.8-2.4-2.9-3.7c-1.1-18.9-2.1-37.9-2.9-56.8c-0.1-1.6,2-3.3,3-4.9c1.4,1.1,3.4,2,4,3.4c6.3,14.3,12.3,28.7,18.5,43.1
		c0.7,1.6,1.6,3.2,2.4,4.8C1707.7,39.6,1708.4,39.6,1709.2,39.5z"/>
	<path class="st0" d="M532.1-22.4c0.6-0.5,0.8-0.6,0.9-0.7c6.7-7.2,14.2-9,20.2-4.8c6.2,4.3,8.5,13.8,4.4,21.7
		c-7.2,13.8-18.4,24.4-29.8,34.6c-1,0.9-4.8,0.5-5.4-0.5C512,11.8,502.6-4.7,506-25c0.9-5.6,2.4-11.8,9.1-13
		c6.5-1.2,9.5,4.4,12.8,8.7C529.5-27.3,530.6-24.9,532.1-22.4z M516.8-30.8c-7.5,6.5-5.2,29.7,9.2,50.5c6.4-4.3,21.7-21.3,24.5-27.8
		c1-2.3,1.8-5.2,1.4-7.7c-0.4-2.3-2-5.6-3.8-6.2c-2.2-0.7-6,0.2-7.5,1.8c-2.5,2.7-3.6,6.6-5.5,9.8c-1.2,1.9-2.9,3.3-4.4,5
		c-1.2-1.9-3-3.7-3.4-5.7C525.8-18.9,523.1-25.7,516.8-30.8z"/>
	<path class="st0" d="M445.6,236.7c-0.7,2-1.5,5-2.8,7.9c-3,7.2-8.9,9.4-15.9,5.9c-5.1-2.5-8.4-6.5-9.7-12c-1.1-5,1.6-9.5,6.6-11.5
		c4.6-1.8,9.6-0.4,11.7,3.7c0.7,1.3,0.1,3.2,0.1,4.9c-1.8,0-3.6,0.1-5.4-0.1c-1.5-0.2-3-0.7-4.6-1c0,1.8-0.8,4.3,0.1,5.3
		c1.9,2,4.5,4,7.1,4.5c0.9,0.2,3.3-3.6,4-5.8c2.9-9.2,5.3-18.6,8.2-27.8c0.6-1.8,2.3-3.6,3.9-4.5c1.3-0.7,4.2-0.7,4.8,0.2
		c0.9,1.2,1.1,3.8,0.5,5.3c-4,8.8-3.3,17.2,1.9,25.2c5,7.7,15.4,12.1,23.9,9.9c2.2-0.6,4.4-1.6,6.2-3c3.1-2.5,3-7.1,0.2-9.7
		c-2.9-2.7-7-2.4-9.7,0.7c-0.3,0.4-0.5,1.1-0.8,1.2c-1.9,0.7-3.9,1.2-5.9,1.8c-0.1-1.9-0.9-4.3-0.1-5.7c2.9-5.2,7.7-7.9,13.7-7.4
		c5.6,0.5,9.5,3.8,11.4,9.2c2.1,6,0.4,11.2-4.1,15.4c-6.9,6.6-20.3,7.8-29.9,1.5C455.3,247,450.7,241.4,445.6,236.7z"/>
	<path class="st0" d="M1091,439.3c0.8-16.2,1.3-27.8,2.2-39.4c0.2-2.4,1.8-5.5,3.7-6.6c1.2-0.7,4.8,1.2,6.4,2.9
		c22.9,24.2,22.8,64.8-0.1,88.5c-1.6,1.7-4,2.6-6,3.8c-0.8-2.2-2.1-4.3-2.3-6.5C1093.4,466.3,1092,450.5,1091,439.3z M1101,474.2
		c16.1-15.5,15.3-58.8-0.9-68.5C1098.4,428.5,1098.4,451.1,1101,474.2z"/>
	<path class="st0" d="M1420.4,303c-0.2,4.6-0.4,9.2-0.6,13.8c-0.1,1.8-0.2,3.7-0.4,5.5c-0.2,2.7-1,5.5-4.2,4.7c-1.4-0.3-3-3.3-3-5.1
		c0.1-8.2,0.7-16.3,1.1-24.4c0.8-16.3,1.7-32.6,2.5-48.9c0-0.3,0-0.7,0-1c0.4-7.8,3.3-12.3,8.5-12.9c5.3-0.7,10.4,3.7,12,11.1
		c2.3,10.4-0.1,20.1-5.7,29.1c-1.3,2.1-2.8,4.1-4.4,6.1c-3,3.8-3.2,7.8-1.1,12.1c4.4,8.8,8.6,17.6,12.9,26.5
		c0.6,1.2,1.6,2.4,1.6,3.6c0,1.8-0.9,3.5-1.4,5.2c-1.7-0.8-4.3-1.1-5.1-2.4c-3.3-5.9-6.2-12.2-9.2-18.3c-0.8-1.6-1.7-3.2-2.5-4.8
		C1421.3,302.9,1420.8,303,1420.4,303z M1421.8,272.7c9.5-9.9,10.8-26,2.2-30.8C1423.2,252.5,1422.5,262.6,1421.8,272.7z"/>
	<path class="st0" d="M1617.4,36.1c-4.7,0.3-9.1,0.9-13.3,0.7c-4.1-0.2-5.5,1.7-6,5.3c-0.6,4.1-1.6,8.2-2.6,12.2
		c-0.6,2.4-1.1,5.4-4.7,4.4c-3.2-0.9-3.1-3.5-2.5-6.1c3.7-17.2,7.5-34.4,11.2-51.7c1-4.5,1.7-9.2,3-13.6c0.7-2.5,1.8-5.1,3.4-7.1
		c3.5-4.2,8-3.3,9.1,2c3.2,15.3,5.9,30.7,8.9,46c1.8,9.1,3.7,18.2,5.6,27.3c0.3,1.6,1.1,3.5,0.6,4.8s-2.9,3.1-3.7,2.8
		c-1.7-0.7-3.7-2.4-4.1-4.1C1620.3,51.6,1619,43.9,1617.4,36.1z M1610.6-9c-0.5,0-0.9,0.1-1.4,0.1c-2.7,12.6-5.5,25.2-8.2,38
		c5.3,0,10.2,0,15.8,0C1614.7,16.1,1612.6,3.5,1610.6-9z"/>
	<path class="st0" d="M1053.1,551.4c0.1,8.4-3.4,17.7-8.9,26.1c-4,6.1-8.5,11.9-13.2,17.5c-1,1.2-3.6,1.1-5.4,1.6
		c-0.1-2.1-0.9-4.7,0-6.1c3.4-5.1,7.6-9.7,11-14.8c6.7-10.1,11-20.9,8.4-33.4c-2.7-12.9-13.4-20.2-24.8-17.1
		c-5.7,1.6-9.2,5.4-10.2,11.1c-1.1,6.2-0.2,12.2,5.1,16.3c1.7,1.3,4.6,1.7,6.9,1.6c1.3-0.1,3.2-2.2,3.3-3.5s-1.6-3.5-2.9-3.8
		c-3.1-0.7-5-2.4-3.3-5.1c0.9-1.4,4.3-2.3,6.2-1.9c5.3,1.1,8.6,7.4,7.5,13c-1.1,5.7-7.6,9.9-14.2,9.1c-7.8-0.9-14-7.3-15.7-16
		c-2.3-12.5,2.2-22.5,12.1-26.8c11.2-4.8,25-0.8,32,9.3C1051.3,534.9,1053,541.9,1053.1,551.4z"/>
	<path class="st0" d="M1061.4,462.6c1.8-8.7,3.7-17.4,5.5-26.1c2.3-11.2,4.6-22.5,6.9-33.7c0.6-2.8,0.2-7,4.7-6.1
		c4.3,0.9,3.1,4.8,2.5,7.9c-4.8,23.1-9.6,46.3-14.4,69.4c-0.7,3.4-1.1,6.9-2.3,10.2c-0.6,1.7-2.5,3-3.8,4.4
		c-1.2-1.5-3.3-2.8-3.6-4.5c-3.4-17.3-6.6-34.6-9.9-52c-2.1-11.4-4.2-22.9-6.3-34.3c-0.2-1-0.8-2.2-0.5-2.9c0.8-1.6,2.1-3,3.1-4.5
		c1.3,1.2,3.5,2.1,3.9,3.5c1.8,7.9,3.2,16,4.7,24c2.8,14.9,5.5,29.7,8.3,44.6C1060.7,462.5,1061,462.6,1061.4,462.6z"/>
	<path class="st0" d="M1165,463.4c1.6-11.3,3.3-22.7,4.9-34c1.7-11.9,3.3-23.7,5-35.6c0.3-2.5,0.3-5.6,3.9-5.1
		c3.3,0.5,3.7,3.4,3.3,6.3c-1.4,10.7-2.9,21.4-4.4,32.1c-2.6,18.5-5.1,36.9-7.9,55.3c-0.3,2.1-1.7,5.3-3.2,5.8
		c-3.4,1-4.2-2.3-4.8-4.9c-5.9-25.9-11.7-51.9-17.5-77.8c-0.2-0.8-0.6-1.9-0.2-2.4c1.1-1.6,2.5-3,3.7-4.5c1.1,1.2,2.9,2.3,3.2,3.6
		c2.2,10.1,3.9,20.2,6.1,30.3c2.2,10.4,4.7,20.7,7,31C1164.4,463.5,1164.7,463.5,1165,463.4z"/>
	<path class="st0" d="M932.5,533.3c-1.4,7.1-2.8,14.3-4.3,21.4c-0.6,2.8-2.2,4.7-5.3,3.9c-3.6-1-2.4-3.7-1.7-6.1
		c6.7-22.9,2.3-43.5-13.1-61.6c-2.3-2.7-5.3-5.1-8.3-7.1c-4.8-3.1-9.8-3-14.4,0.7c-4.6,3.7-6.1,8.5-4.8,14.3
		c1.3,5.6,4.5,9.7,9.9,11.6c1.7,0.6,4.8,0.3,5.8-0.9s0.4-3.9,0.3-6c-0.1-0.7-0.8-1.5-1.4-2c-2.4-2.1-4.1-4.7-1.2-7.2
		c3.1-2.6,5.2,0.7,6.9,2.6c4.4,4.9,5.2,11.5,2.2,16.1s-8.9,6.3-15.2,4.3c-10.3-3.2-17.1-15.8-14.7-27c2-9.6,12.1-17.5,21.8-15.7
		c5.2,1,10.6,4.1,14.7,7.6C923.4,494.1,931.6,513.8,932.5,533.3z"/>
	<path class="st0" d="M1645.1,29.3c0,8.9,0,17.5,0,26.1c0,2.5,0.8,5.9-3.3,5.9c-4.1,0-4.6-3.2-4.7-6.3c-0.5-21.3-0.9-42.5-1.4-63.8
		c0-1.3-0.6-2.9,0-3.9c0.9-1.6,2.3-2.9,3.8-4c0.7-0.5,1.9-0.3,2.8-0.6c9.7-3.9,17.7,0.1,19.5,10.5c1.3,7.5,0.7,15.1-3,21.9
		c-1.8,3.3-5.3,5.7-8.4,9c4.9,6.8,10,13.9,15.2,21c1.9,2.7,4.2,5.2,5.7,8.1c0.8,1.5,0.1,3.7,0.2,5.6c-2-0.5-4.9-0.3-5.9-1.6
		c-6.6-8.6-12.8-17.4-19.1-26.2C1645.9,30.5,1645.5,30,1645.1,29.3z M1643,17.8c0.6,0.1,1.2,0.2,1.7,0.2c0.9-0.7,1.9-1.3,2.8-2
		c6.1-4.5,9.5-17,6.1-23.8c-0.9-1.8-3.8-3.8-5.6-3.7c-2.3,0.2-5.2,1.5-5.1,5.4C1643.2,1.9,1643,9.8,1643,17.8z"/>
	<path class="st0" d="M1233.2-106.8c-10.8,0-16.5-3.4-18-10.7c-1.5-7.3,2.2-12.6,12.1-17.4c1.2-0.6,2.1-1.6,3.1-2.5
		c4.5-3.8,11.5-5,16.2-1.7c3.1,2.2,5.2,1.4,8.1,0.2c11.2-4.9,22.8,0.1,25.5,11c2.1,8.4-2.4,15.8-10.9,18.5c-1.5,0.5-3.5,1.6-3.9,2.9
		c-2.6,7.6-7.2,12.8-15.7,13C1242.3-93.2,1237-97.6,1233.2-106.8z M1265.9-116.2c1.3-0.8,4.8-1.9,5.9-4.1c1.1-2.3,0.8-6.2-0.4-8.7
		c-1.9-4-6-5.4-10.2-4.3c-2.9,0.8-5.8,2.4-8.2,4.3c-3.1,2.4-5,2.3-7.2-1c-2.8-4.3-6.8-4.6-11-1.5c-2.1,1.6-4.8,2.3-6.7,4
		c-2.2,1.9-4.5,4.2-5.6,6.9c-0.5,1.2,1.3,4.8,2.6,5.1c2.8,0.6,5.9-0.1,8.8-0.4c1.7-0.2,3.9-1.5,4.8-0.8c1.2,1,1.9,3.2,1.9,4.9
		c-0.1,6.2,3.6,11.1,8.8,11.2c5,0.1,9-4.5,8.8-10.6C1258.1-115.6,1259.4-117.7,1265.9-116.2z"/>
	<path class="st0" d="M1392.2,274.3c0-8.5,0-17,0-25.5c0-2.5-0.7-5.3,3-5.6c3.7-0.3,4.5,2.4,4.6,5.2c0.9,21.5,0.7,43-3,64.2
		c-0.4,2.1-1.2,4.2-2.1,6.1c-2.4,5.5-7.6,8.9-12.8,8.7c-5.1-0.2-9.8-3.5-11.1-9.9c-1.9-9.6-3-19.4-3.6-29.1
		c-0.9-13.1-1.1-26.3-1.5-39.4c-0.1-2.6-0.6-5.9,3.4-5.9c4.1-0.1,3.8,3.2,4,6.1c1,19,1.9,37.9,3,56.8c0.2,3.1,0.7,6.4,1.9,9.2
		c0.8,1.9,3,4.5,4.5,4.5c1.9-0.1,4.9-2.2,5.4-4.1c1.8-6.4,3.1-12.9,3.9-19.5c0.9-7.3,0.9-14.6,1.4-21.9
		C1392.8,274.3,1392.5,274.3,1392.2,274.3z"/>
	<path class="st0" d="M1461.7,318.7c8.1-10.8,9.9-21.8,6.8-34.8c-1.8,0.6-3.5,1.5-5.2,1.6c-1.9,0.1-3.8-0.5-5.7-0.8
		c0.6-1.8,0.7-4.1,1.9-5.3c1.4-1.4,3.7-2.3,5.7-2.8c6.6-1.6,9.2,0.1,10.8,6.7c3.1,12.2,1.4,23.8-4.8,34.7c-1.2,2.1-2.9,4.1-4.7,5.7
		c-4.1,3.5-8.5,2.9-11.4-1.6c-1.5-2.3-2.7-5.1-3.2-7.8c-3.5-17.7-5.6-35.6-2.9-53.6c0.7-5,2.5-10,5.1-14.4
		c3.5-6.1,12.4-8.6,18.5-5.2c2.8,1.5,4.6,5.2,6.3,8.2c0.4,0.7-1.3,3.5-2.6,3.9c-1,0.4-3.4-0.9-4.2-2.1c-3.4-5.2-9.8-5.5-12.5,0.3
		c-2.4,5.2-3.8,11.1-4.2,16.7c-1.1,15.7,0.7,31.3,4.5,46.5C1460.3,315.8,1460.9,316.8,1461.7,318.7z"/>
	<path class="st0" d="M1511.4,296.7c-1-0.1-1.2-0.2-1.3-0.1c-4.6,1.2-10.8,1-13.5,4c-2.7,3-2,9.1-2.8,13.8c-0.2,1.3-0.1,2.9-0.8,3.9
		c-1,1.5-2.6,2.7-4,4c-1-1.6-3.1-3.4-2.9-4.9c1-9.6,2.5-19.1,3.9-28.6c1.9-13.3,3.6-26.7,5.7-40c0.3-1.8,2.1-3.3,3.1-4.9
		c1.7,1.3,4.1,2.3,4.9,4c7.6,15.7,11.8,32.4,15.3,49.4c1,4.7,2.3,9.4,2.7,14.2c0.1,1.9-1.4,5-3,5.6c-2.9,1.2-3.8-1.8-4.2-4.1
		C1513.3,307.5,1512.4,302.1,1511.4,296.7z M1496.8,292c4.8-1.1,8.7-2,13.2-3c-2.7-9.2-5.3-17.9-7.8-26.6c-0.4,0.1-0.8,0.1-1.2,0.2
		C1499.7,272.1,1498.3,281.5,1496.8,292z"/>
	<path class="st0" d="M944.4,463.4c0,5.7,0.1,11.3,0,17c0,1.8,0.1,4.3-0.9,5.2c-1.6,1.4-4.1,1.8-6.2,2.7c-0.6-2-1.6-4-1.6-6
		c0-2.2,1.3-4.4,1.3-6.6c0.1-24.3,0.1-48.6,0-72.9c0-1.8,0-3.9-0.9-5.2c-1.9-3-0.6-4.9,1.2-7.1c2-2.4,4-2.2,6.6-0.9
		c3.2,1.6,7,2.3,9.9,4.4c9.7,6.9,12.4,19.9,6,30.7c-3.3,5.6-8.4,10.2-12.5,15.4c-1.4,1.8-2.6,4.1-2.8,6.3
		C944.2,452.1,944.5,457.8,944.4,463.4C944.5,463.4,944.5,463.4,944.4,463.4z M944.7,432c8.8-7.3,12.8-16.6,10.5-23.9
		c-1.8-5.8-5.5-9.2-10.5-9.6C944.7,409.5,944.7,420.4,944.7,432z"/>
	<path class="st0" d="M490.6,332.3c6.9,0.3,13.5,0.6,20.1,1.1c3,0.2,5.3,1.8,4.5,5.2s-3.4,2.9-6,2.1c-1.7-0.5-3.6-0.8-5.4-1
		c-11.1-1.2-13.3,0.8-13.4,11.7c0,8.8-0.1,17.6-0.1,26.5c0,2.7-0.2,5.4-3.7,5.3c-3.4-0.1-3.6-2.8-3.6-5.4c0-30.6,0-61.2,0-91.9
		c0-4.7,1.4-5.7,6.2-4.7c6.5,1.4,13,2.8,19.5,4.2c2.5,0.5,5.4,1,4.7,4.4c-0.6,3.4-3.1,3.6-6.2,2.9c-5.4-1.3-10.9-2.4-16.7-3.6
		C490.6,304.2,490.6,318.6,490.6,332.3z"/>
	<path class="st0" d="M1741.5,32.6c-2.5-0.4-4.6-0.7-7.3-1.2c-1.2,5.3-2.4,10.4-3.6,15.4c-0.5,2.3-0.7,4.7-1.9,6.7
		c-0.8,1.4-2.9,2-4.4,2.9c-0.8-1.5-2.5-3.2-2.3-4.6c0.6-4.6,2.2-9,3-13.6c2.7-15.2,5.3-30.4,8-45.6c0.2-1.1,0.3-2.4,1-3.3
		c1.1-1.5,2.5-3.6,3.8-3.7c1.4-0.1,3.7,1.8,4.1,3.3c1.8,7.2,3.6,14.5,4.6,21.8c1.6,11.3,2.6,22.8,3.8,34.2c0.3,2.4,0.5,5.1-2.7,5.4
		c-3.1,0.3-4.2-1.9-4.5-4.8C1742.6,41.3,1742,37.2,1741.5,32.6z M1738.7,5.9c-0.3,0-0.6-0.1-1-0.1c-0.9,6-1.7,12.1-2.6,18.4
		c2.1,0,3.6,0,5.4,0C1739.9,17.8,1739.3,11.8,1738.7,5.9z"/>
	<path class="st0" d="M525.8,428.4c4.2-2.9,8.5-4.5,12.8-0.9c4.5,3.7,5,8.7,3.6,14.1c-3.1,11.1-10.7,18.9-19.5,25.7
		c-2.9,2.2-4.4,0.4-5.5-2.4c-0.8-2.1-1.6-4.2-3-5.9c-7.7-9.7-11-20.6-9.6-33c0.5-4,2.6-5.4,6.3-5.5
		C517.3,420.3,521.8,423.7,525.8,428.4z M511.8,428c-0.8,12.1,3.1,21.5,11.6,29.9c2.9-3.5,6-6.2,7.9-9.7c2-3.7,3-7.9,4.1-12
		c0.2-0.8-1-2.5-1.9-2.9c-0.6-0.3-2.1,0.5-3,1.2c-0.8,0.6-1.1,1.7-1.8,2.3c-1.6,1.4-3.4,2.7-5.1,4c-1.1-1.8-2.8-3.4-3.3-5.3
		C519.1,431.2,516.9,428.7,511.8,428z"/>
	<path class="st0" d="M975.7,480.4c7,0,13.5,0,19.9,0c2.5,0,5.4-0.4,5.5,3.3c0.1,3.4-2.4,3.9-5.1,4c-7.2,0.3-14.3,0.5-21.5,0.9
		c-3.3,0.2-5.1-1.3-5.5-4.4c-0.6-4.6-1.2-9.3-1.3-13.9c-0.2-22.6-0.2-45.3-0.2-67.9c0-1.3-0.3-2.8,0.3-3.9c0.6-1.2,2-2.8,2.9-2.7
		c1.3,0.1,3,1.2,3.7,2.4c0.7,1.1,0.4,2.9,0.4,4.4c0,22.5,0,45,0.1,67.4C975.1,473.6,975.5,477.2,975.7,480.4z"/>
	<path class="st0" d="M529.6,371.4c2.2-28.8,4.2-54.5,6.2-80.2c0.1-1.7,0.9-3.5,1.9-4.8c0.5-0.7,2.9-0.8,3.5-0.3
		c1,1,1.9,2.7,1.8,4.1c-0.6,9.8-1.6,19.6-2.2,29.3c-1.4,22.3-2.6,44.5-3.8,66.8c-0.1,1,0.3,2.3-0.2,2.9c-1.2,1.5-2.8,2.6-4.2,3.9
		c-1-1.5-2.8-2.9-2.9-4.4C529.4,382.1,529.6,375.2,529.6,371.4z"/>
	<path class="st0" d="M588,35.7c1.9-20.2,10.4-35.2,31-39.2c4.6-0.9,9.2-1.6,13.8-1.7c9.4-0.2,18-2.6,26.1-7.2
		c2.3-1.3,4.8-2.1,6.3,1.1c1.5,3.2-0.9,4.4-3.2,5.6c-10.2,5.4-21.1,7.6-32.6,8.1c-9.8,0.4-19.1,2.6-26.1,10.5
		c-5,5.8-7.2,12.7-7.9,20.1c-0.2,1.8,1.6,3.8,2.1,5.8c0.4,1.7,0.3,3.5,0.5,5.3c-1.9,0-4.9,0.7-5.6-0.3C590.2,41,588.8,37.5,588,35.7
		z"/>
	<path class="st0" d="M1525.9,188.2c0.1-10.3,5.5-18.5,12.4-20.5c7.8-2.3,16,1.2,20.9,9c4,6.3,5.6,13.1,4,20.5
		c-2.7,12.2-14.2,17.4-25,10.9C1530.2,203.2,1526.2,195.8,1525.9,188.2z M1557.6,192.8c-1.4-6.8-3.5-12.2-8.2-16.1
		c-3.6-3-9.5-3.2-11.9-0.5c-6.4,7.2-5.5,17.2,2.4,23.6c3.3,2.7,7.3,5.6,11.2,2.7C1554,200.3,1555.5,196.1,1557.6,192.8z"/>
	<path class="st0" d="M457.7,551.9c5.8-4.3,9.8-4.6,13.7-1.3s5.1,10.5,2,15.6c-1.9,3.1-4.9,5.4-7.1,8.2c-1.7,2.2-3.3,4.6-4.5,7.1
		c-1.3,2.9-5.1,4.1-6.7,1.3c-5.2-9-10.4-18.1-14.7-27.6c-1-2.2,0.4-7.5,2.4-8.6c2.3-1.4,6.4-0.2,9.5,0.7
		C454.3,547.9,455.8,550.2,457.7,551.9z M465.2,554.5c-1.6,3.1-2.7,5.4-4,7.5c-1,1.6-2.4,3.1-3.6,4.6c-1.4-1.6-3.1-3-4.1-4.7
		c-1.6-2.8-2.9-5.9-4.2-8.8c-0.7,0.4-1.4,0.7-2.1,1.1c3.2,6.2,6.4,12.4,9.6,18.7C467.8,563.9,469.3,561.2,465.2,554.5z"/>
	<path class="st0" d="M1546.2,294.4c0,9.3-7.5,17.8-16.6,16.9c-1.5-0.1-2.8-2-4.1-3.1c1.2-1.3,2.3-3.5,3.8-3.8
		c7.7-1.9,11.9-8,9-15.5c-2.3-6-5.9-11.5-9.2-17.1c-4.4-7.3-7.8-14.8-6.2-23.5c1.1-6.2,4.6-10.7,10.8-12.5
		c5.8-1.7,12.3,2.6,12.3,8.2c0,1.4-1.2,3.8-2.3,4.1c-1.2,0.3-3.5-0.9-4.3-2.1c-2.6-3.8-5.3-4.5-7.1-0.5c-1.6,3.6-2.3,8.5-1.3,12.2
		c1.4,5.1,4.6,9.9,7.4,14.6C1542.3,278.7,1546.3,285,1546.2,294.4z"/>
	<path class="st0" d="M1391.7,176.5c7.3-0.1,13.3,2.9,18.4,7.7c9.8,9.3,16.8,10.8,26.8-4.1c1-1.5,1.6-3.5,3-4.5
		c1.2-0.9,3.4-1.4,4.7-0.8c0.9,0.4,1.8,3.1,1.3,4.1c-4.4,8.5-9.6,16.8-19.7,19c-3.6,0.8-8-0.2-11.4-1.7c-3.9-1.7-7.1-4.8-10.6-7.4
		c-11.6-8.9-27.1-4.9-32.6,8.6c-1.1,2.7-2.2,5.3-5.6,3.8s-2.2-4.4-1.3-6.9C1368.5,183.9,1379.9,176.4,1391.7,176.5z"/>
	<path class="st0" d="M329.6-8.5c-7.4-0.9-13.4-5.8-14.2-12.3c-0.8-6,3.9-12.7,10-13.5c1.9-0.3,5.3,1,5.9,2.5c1.4,3-1.1,4.1-4,4.6
		c-3.4,0.5-4.9,2.7-4.1,6.1c0.8,3.4,4.5,5.5,7.8,4.2c4.4-1.7,6-5.3,5.3-9.7c-0.6-3.8-1.8-7.4-2.7-11.1c-2.2-9.1-1.7-18.1,1-27.1
		c0.8-2.7,2.4-5,5.2-3.6c1.3,0.6,2.3,3.9,1.8,5.6c-2.9,10.2-2.1,20.1,0.9,30c2.2,7.1,2.5,14-3.6,19.4
		C336.4-11.2,332.8-10.1,329.6-8.5z"/>
	<path class="st0" d="M1137.8,462.3c0,4.5,0.1,11.7,0,18.8c0,3,1.1,7.2-3.6,7.3c-4.4,0.1-3.6-4-3.7-6.8c-1.5-24.3-2.9-48.5-4.4-72.8
		c-0.2-3.2-1.1-6.3-0.8-9.4c0.1-1.7,2-3.2,3.2-4.8c1.3,1.4,3.5,2.8,3.7,4.3C1134.1,419.1,1135.8,439.4,1137.8,462.3z"/>
	<path class="st0" d="M1423.2,221.6c-6.5,0.3-11.6-2.5-16.3-6.5c-3.2-2.6-6.3-5.5-9.7-7.8c-5.8-3.8-9.7-2.5-13,3.5
		c-0.6,1.1-2.9,2.5-3.8,2.1c-1.3-0.5-2.9-2.4-3-3.8c-0.3-4.2,2.1-7.3,5.7-9.2c6.3-3.3,12.6-2.8,18.4,1.3c3.8,2.7,7.2,5.9,10.9,8.7
		c10.3,7.5,22.2,4.6,28.1-6.7c1.3-2.5,2.8-5.3,5.8-3.2c1.2,0.8,1.5,4.6,0.7,6.3C1442.3,216.4,1434,221,1423.2,221.6z"/>
	<path class="st0" d="M623.2,10.1c4.3-1.1,8.5-2.2,12.8-3.2c4.5-1,9-2.6,13.5-2.5c8.9,0.3,15.7,11.2,12.5,19.3c-1,2.6-2.5,5.1-5.8,4
		c-3.4-1.1-2.5-3.4-1.5-6.1c1.8-4.8-1.8-10.1-6.9-10.3c-2.2-0.1-4.7,0.4-6.7,1.3c-6.3,3-12.7,4.3-19.8,3.7
		c-7.1-0.6-11.1,4-11.3,11.3c0,1.7-1.8,3.3-2.8,5c-1.5-1.4-3.9-2.6-4.2-4.3C600.7,17.7,610.4,8.5,623.2,10.1z"/>
	<path class="st0" d="M1578.5,89.4c7.7,0,13.7,5.7,13.7,12.9c0,7.2-6.1,13.2-13.4,13.2c-7.2,0-12.6-6.1-12.8-13.7
		C1565.8,95.9,1573,88.7,1578.5,89.4z M1585.5,103.6c0-0.7,0-1.5,0-2.2c-2.2-1.6-4.2-4.1-6.6-4.6c-3.3-0.7-5.7,1.7-5.6,5.3
		c0.1,3.4,2.3,6.1,5.5,5.8C1581.2,107.7,1583.3,105.1,1585.5,103.6z"/>
	<path class="st0" d="M862.7,654.1c9.2,0.2,14.8,4.9,15.8,11.7c0.8,5.8-2.8,11.7-8.4,13.7c-4.7,1.7-8.8,0.7-12.2-3
		c-3.2-3.5-3.7-8.9-1.7-13.1c1-2.1,1.3-4.7,2.7-6.5C860,655.3,862.1,654.4,862.7,654.1z M865.8,661.5c-1.1,1.9-2.6,3.4-2.9,5.2
		c-0.3,1.7,0.1,4.2,1.2,5.1c1,0.8,3.9,0.4,5.1-0.5C872.8,668.5,871.4,664.4,865.8,661.5z"/>
	<path class="st0" d="M747,268.6c-6,0.1-9-3-9.1-9.3c-0.1-6.8,7.5-14.8,13.9-14.7c5.7,0.1,10.1,4.5,10.2,10.2
		C761.9,261.8,754.7,268.5,747,268.6z M756.4,255.2c-2.6-1.7-4.4-3.2-4.7-3c-2.4,1.9-4.5,4.2-6.7,6.4c0.9,0.9,2.3,2.7,2.6,2.5
		C750.3,259.6,752.8,257.8,756.4,255.2z"/>
	<path class="st0" d="M1040.5,142.6c-6.7-0.1-12.8-6.2-12.7-12.8c0-5.2,7-11.6,12.8-11.5c6.4,0.1,11.3,5.7,11.2,12.8
		C1051.5,137.9,1046.8,142.7,1040.5,142.6z M1035,129.7c1.5,3.9,3.4,6.8,7.1,5.2c3.1-1.4,2.9-4.9,1.1-7.3
		C1038.4,121.5,1038.7,131.3,1035,129.7z"/>
	<path class="st0" d="M1360.3,506c0,6.4-5.8,12.3-12,12.3c-6.4,0-12.3-6.2-12.2-12.8c0.1-5.8,5.9-11.4,11.9-11.3
		C1354.9,494.2,1360.3,499.4,1360.3,506z M1341.4,505.3c3.1,2.6,4.8,5.1,6.4,5c1.7-0.1,3.4-2.6,5-4.1c-1.7-1.6-3.1-3.9-5.1-4.7
		C1346.6,501.2,1344.6,503.4,1341.4,505.3z"/>
	<path class="st0" d="M688.8,673.8c-6.4,0-11.3-5-11.5-11.9c-0.2-6.3,4.8-11.5,11.1-11.6c6.8-0.1,12.4,5,12.5,11.5
		C701.1,668.3,695.5,673.8,688.8,673.8z M688.6,655.5c-1.8,3.1-3.7,4.9-3.4,6.2c0.4,1.8,2.5,3.2,3.8,4.7c1.6-1.5,4.4-2.9,4.4-4.4
		C693.4,660.4,691,658.6,688.6,655.5z"/>
	<path class="st0" d="M732.6,7.7c6.5,0.1,12.8,4.2,12.7,8.2c-0.3,6.5-7.9,14.5-13.8,14.3c-5.4-0.1-10.5-5.4-10.4-10.8
		C721.2,11.4,724.9,7.6,732.6,7.7z M737.1,16.9c-4.6-2.4-6-2.3-7.1,0.9c-0.5,1.3-0.1,4.2,0.5,4.3C734.8,23.4,735.9,20,737.1,16.9z"
		/>
	<path class="st0" d="M518.1,495.9c2.3,0.6,3.8,0.8,5.1,1.4c4.3,2.1,6.2,6.7,5.1,11.9c-1.3,6-6.5,10.8-12,11
		c-4.5,0.2-9.2-3.2-10.3-7.9c-0.8-3.4-1.3-6.9,2.9-9c1.3-0.7,1.7-2.9,3-3.8C513.9,497.9,516.3,496.9,518.1,495.9z M511.9,510.9
		c2.7,0.4,5.5,1.5,6.1,0.8c1.5-1.8,2-4.5,2.9-6.8c-1.3,0-3-0.5-3.8,0.1C515.6,506.1,514.5,507.8,511.9,510.9z"/>
	<path class="st0" d="M578.1-25.5c-0.1-9.2,2.3-13.3,7.6-13.2c6.4,0.1,11.9,6.2,12.1,13.4c0.2,6.1-3.8,11-9,11.2
		C582.8-14,578.1-18.9,578.1-25.5z M587.4-30.6c-0.6,0.1-1.3,0.2-1.9,0.4c0.5,2.7,1,5.4,1.7,8.1c0,0.1,2.1,0,2.3-0.5
		C590.9-25.7,590.5-28.5,587.4-30.6z"/>
	<path class="st0" d="M1170.1,133.2c1-4.2,4.4-5.7,8.4-6.1c5.1-0.6,10.3,3,11.4,7.8c1,4.4-0.3,8.3-3.7,11.3
		c-3.6,3.1-7.9,3.3-12.2,1.6c-4.3-1.7-7.5-4.8-7.8-9.4C1166.1,136.7,1168.7,134.9,1170.1,133.2z M1172.1,136.4
		c1.9,1.9,3.1,4,4.8,4.6c1.4,0.5,3.7-0.4,5.1-1.4c0.7-0.5,0.7-3.5,0.3-3.8c-1.4-0.7-3.2-0.7-4.8-0.6
		C1176.1,135.3,1174.8,135.8,1172.1,136.4z"/>
	<path class="st0" d="M778.6,210.4c9.2,0.1,11.4,3.5,7.7,11c-2.3,4.7-5.9,7.9-11.1,9.3c-3.7,1-7,0.8-9.1-2.9
		c-2.2-3.8-2.4-7.9,0.4-11.2C769.7,212.7,774,210.1,778.6,210.4z M773.2,224c2-1.7,4.1-3.4,6.1-5c-0.3-0.4-0.6-0.7-0.9-1.1
		C775.6,218.7,772.1,218.7,773.2,224z"/>
	<path class="st0" d="M1598.9,503.1c0.1,5.3-4.6,9.9-10.3,10.2c-5.8,0.3-10.4-4.3-10.6-10.3c-0.1-5,3.7-10.7,7.2-10.6
		C1592.2,492.4,1598.8,497.6,1598.9,503.1z"/>
	<path class="st0" d="M579.9,247.3c6.2-0.1,11,4.4,11,10.4s-5.2,11.2-11.1,11.1c-5.6-0.1-10.4-5.3-10.4-11.2
		C569.4,251.7,573.8,247.4,579.9,247.3z M580.4,262.3c1.3-2,2.9-3.4,2.7-4.6c-0.1-1.1-2.1-2.6-3.3-2.6c-0.9,0-2.7,2-2.6,3
		C577.3,259.3,578.9,260.4,580.4,262.3z"/>
	<path class="st0" d="M962.8,531.6c-5.8-0.1-10.3-4.9-10.3-11.2s3.8-9.4,11.4-9.2c5.8,0.2,10.3,4.7,10.2,10.1
		C973.9,527.2,969,531.7,962.8,531.6z M960.4,519.1c-0.3,1-0.5,2.1-0.8,3.1c1.8,0.6,3.5,1.3,5.3,1.5c0.2,0,0.8-2.4,1.2-3.6
		C964.2,519.8,962.3,519.4,960.4,519.1z"/>
	<path class="st0" d="M1561.7,251.2c-0.8,1.1-2,4.1-3.6,4.4c-3.3,0.6-3.9-2.4-4.2-5.3c-0.6-6.1-1.6-12.2-2.6-18.2
		c-0.5-2.8-0.4-5.1,2.9-5.8c3.2-0.6,4,1.8,4.4,4.2C1559.6,236.9,1560.5,243.3,1561.7,251.2z"/>
	<path class="st0" d="M1483.9,204.3c-1.4-1.5-3.3-2.7-3.6-4.2c-0.2-1.1,1.4-3.3,2.7-3.8c6.2-2.4,12.4-4.6,18.8-6.3
		c1.4-0.4,3.6,0.8,4.8,1.9c0.5,0.5-0.3,3.6-1.1,4C1498.6,198.8,1491.6,201.3,1483.9,204.3z"/>
	<path class="st0" d="M1510.2,176.6c-1.6,0.7-3.6,2.4-4.8,2c-6.1-2-12.2-4.3-18-7c-1.2-0.5-1.3-3.2-2-4.9c1.7-0.5,3.6-1.8,5-1.4
		c5.5,1.8,10.9,4,16.2,6.2c1.7,0.7,3.3,1.5,4.9,2.3C1511.1,174.7,1510.6,175.6,1510.2,176.6z"/>
	<path class="st0" d="M1519.7,216c0,2.7-14.4,13-17,12.2c-2.7-0.8-3.6-4.5-1.2-6.4c4.1-3.3,8.5-6.3,13-9
		C1517,211.3,1519.7,213.3,1519.7,216z"/>
	<path class="st0" d="M1586.5,171.7c1.2,1.1,3.1,2.1,3.5,3.4c0.3,1-0.9,3.2-2,3.8c-4.2,2.2-8.6,4.3-13.2,5.8
		c-1.4,0.5-3.5-1.2-5.3-1.8c0.8-1.6,1.2-3.8,2.5-4.5C1576.4,176,1581.2,174.1,1586.5,171.7z"/>
	<path class="st0" d="M1586.3,230.5c0,3.3-3.3,5.6-4.9,3.6c-4-4.7-7.3-10.1-10.5-15.4c-0.3-0.5,1-2.8,2.1-3.4c1-0.5,3.2-0.2,3.8,0.6
		c3.2,4.2,6.1,8.6,9.1,13C1586.1,229.5,1586.2,230.3,1586.3,230.5z"/>
	<path class="st0" d="M1568,144.3c-0.5,1-0.9,2.1-1.5,3c-2.1,3.3-4.1,6.9-6.7,9.8c-1,1.1-3.6,0.8-5.4,1.1c-0.1-1.7-1-3.9-0.3-5.2
		c1.9-3.6,4.2-7.1,6.9-10.3c0.9-1.1,3.1-1.4,4.7-1.5c1.2,0,2.4,1,3.6,1.5C1568.8,143.3,1568.4,143.8,1568,144.3z"/>
	<path class="st0" d="M1325.9,33.1"/>
	<path class="st0" d="M1319.2,24.4"/>
	<path class="st0" d="M549.6,148c-10.3,1.8-19.8,3.4-29.3,5.1"/>
	<path class="st0" d="M988.9,573.7c-10.4-2.4-20.1-4.6-29.8-6.9"/>
	<path class="st0" d="M787.6,606.6c-8.9,0.2-11.2-2.1-10.7-11c0.3-5.4,0.5-11,1.9-16.1c1.5-5.5,6.1-8.4,10.7-8.1
		c5.4,0.3,7.7,4.2,9,8.7c1.2,4.1,2.1,8.4,2.3,12.7C801.1,604.5,797,606.9,787.6,606.6z"/>
	<path class="st0" d="M653.3,605.4c-13.1-0.5-14.1-1.2-13.2-14.2c0.4-5.6,1.9-11.5,4.2-16.6c2.9-6.4,10.7-6.5,14.4-0.4
		c5.1,8.6,5.1,18.4,4.8,28c0,1.1-2.3,2.7-3.8,3.1C657.7,605.8,655.4,605.4,653.3,605.4z"/>
	<path class="st0" d="M621.4,594.6c0,0.7,0.1,1.4,0,2c-0.8,3.6,2,9.4-2.8,10.5c-5.9,1.3-12.3,0.3-18.5-0.1c-0.8,0-1.9-2.3-2-3.5
		c-0.8-8.1,0.4-15.9,4.1-23.2c2.1-4.1,5.2-7.1,10.2-6.4c5.2,0.8,7.5,4.7,8.4,9.3c0.7,3.7,0.7,7.6,1,11.4
		C621.7,594.6,621.6,594.6,621.4,594.6z"/>
	<path class="st0" d="M753.2,590.2c-0.1,1.7-0.1,3.3-0.3,5c-0.5,6-2.4,7.9-8.3,8.4c-1.8,0.2-3.7,0.3-5.5,0.3c-5.9,0-8.6-2-8.5-7.8
		c0.1-6.7,0.6-13.7,2.5-20c2.5-8.3,10.6-9.5,15.4-2.2c3,4.6,4.1,10.5,6,15.8C754.1,589.9,753.6,590.1,753.2,590.2z"/>
	<path class="st0" d="M701.9,604.2c-1.8-0.2-3.7-0.5-5.5-0.4c-6.9,0.3-7.5,0.4-7.4-6.7c0.1-6.5,0.7-13.3,2.5-19.6
		c2.1-7.4,9.3-8.4,14.2-2.4c6.2,7.6,7.2,16.6,5.7,26c-0.2,1.3-2.5,2.7-4.1,3.3C705.7,604.9,703.7,604.3,701.9,604.2z"/>
	<path class="st0" d="M562.8,600.1c0,1,0.2,2,0,3c-0.6,3.3-0.6,8.7-2.3,9.4c-4.8,1.8-10.5,2.1-15.2-1.5c-1.2-0.9-2.3-2.7-2.3-4.1
		c-0.2-6.3-0.2-12.6,0.1-18.8c0.1-2,1.1-4.2,2.2-6c3.9-6.1,12-6.1,14.8,0.6c2.2,5.3,2.5,11.5,3.6,17.3
		C563.4,600,563.1,600.1,562.8,600.1z"/>
	<path class="st0" d="M822,592.3c0-2.7-0.2-5.3,0.1-7.9c0.5-4.9,4.1-8.4,8.5-9.1c5.2-0.8,8.6,2,9.9,6.4c1.4,5.2,2.1,10.7,2.1,16.1
		c0,2-2.9,4.3-5,5.7c-1.5,1-3.8,0.9-5.8,1.1c-8.2,0.7-9.7-0.7-9.5-8.7c0-1.2,0-2.3,0-3.5C822.2,592.3,822.1,592.3,822,592.3z"/>
	<path class="st0" d="M529,597.6c0,0.7,0,1.3,0,2c-0.9,12.6-3,11.1-13.9,8.4c-1.2-0.3-2.6-2.3-2.8-3.7c-1.1-6.5-0.8-13.1,2.8-18.8
		c1.2-2,4.2-4.2,6-4c2.2,0.3,4.8,2.8,5.8,5c1.5,3.4,1.8,7.3,2.6,11C529.4,597.5,529.2,597.6,529,597.6z"/>
	<path class="st0" d="M752.8,442.7c-0.6,9.7-6.5,14.3-15.7,11.7c-1-0.3-2.2-1.2-2.6-2.1c-3-8.3-3.7-16.3,1.2-24.4
		c3.5-5.9,12.5-3.8,14,1.3C751.1,433.6,751.8,438.2,752.8,442.7z"/>
	<path class="st0" d="M688.7,436.5c0.6-1.9,0.7-5.3,2.4-7c2.1-2.1,5.6-3.9,8.3-3.8c2.2,0.1,5.2,3,6.1,5.3c1.5,3.8,2,8.1,2.2,12.2
		c0.3,5.7-4,8.9-9.5,9c-6.2,0.1-8.6-2.4-8.6-8.3C689.7,441.7,689.1,439.5,688.7,436.5z"/>
	<path class="st0" d="M645.9,450.7c0-8.6,3.1-13.4,8.3-13.6c5.2-0.2,8.7,4.2,8.9,12.1c0.1,2.8-0.5,6.1-2,8.4
		c-2.3,3.6-6.2,4.9-10.5,4.1c-4.7-0.8-3.5-5-4.5-7.9C645.8,452.7,645.9,451.3,645.9,450.7z"/>
	<path class="st0" d="M709.7,353.5c0,0.7,0,1.3,0,2c-0.6,10-4.9,13.6-14.8,11.4c-2.1-0.5-5.1-3.6-5.2-5.6
		c-0.2-5.7,0.5-11.6,1.8-17.2c0.9-4,3.9-7,8.7-6.8c4.8,0.3,7.5,3.4,8.6,7.7c0.7,2.7,0.8,5.6,1.2,8.4
		C709.9,353.5,709.8,353.5,709.7,353.5z"/>
	<path class="st0" d="M734.7,352.4c0.8-3.9,1.1-7.8,2.5-11.2c0.8-2,3.2-4.4,5-4.5c1.9-0.2,4.8,1.6,5.9,3.4c1.7,2.7,2.5,6.1,3.2,9.2
		c0.8,3.7,1,7.5,1.5,11.3c0,0.3,0.2,0.7,0,1c-2.1,4.9-7.1,3.4-10.8,4.6c-1.3,0.4-4.3-1.2-4.8-2.6C735.9,360,735.5,356.1,734.7,352.4
		z"/>
	<path class="st0" d="M658.5,371.5c-6.1,0.3-7.5-0.8-8.4-6.8c-0.8-5.7,0.1-11,4.2-15.3c3-3.3,6-3,7.7,1.1c1.6,3.9,2.9,8.1,3.6,12.4
		C666.7,370,665.6,371.1,658.5,371.5z"/>
	<path class="st0" d="M766.7,356.7c0-2.2-0.1-4.3,0-6.5c0.3-4.1,2.9-5.5,6.5-3.8c5.5,2.7,8.3,15,3.9,19.3c-1.6,1.5-4.9,2.4-7,1.9
		c-1.5-0.4-2.7-3.4-3.3-5.5C766.2,360.5,766.6,358.5,766.7,356.7L766.7,356.7z"/>
	<path class="st0" d="M831,479.8c0.4-3.2,0.5-6.8,1.5-10.1c0.3-1.3,2.6-3,3.7-2.8c1.2,0.2,3,2.3,3,3.7c0.2,5.3,0.1,10.7-0.5,15.9
		c-0.2,1.4-2.3,2.6-3.6,3.9c-1.1-1.1-2.8-2.1-3.3-3.5C831.2,484.8,831.3,482.4,831,479.8z"/>
	<path class="st0" d="M812.9,486.6c-0.5,0.5-1.8,2.6-3,2.6c-1.4,0-3.8-1.8-4-3.1c-0.9-5-1.3-10.2-1.4-15.3c0-1.1,2.4-3.3,2.7-3.2
		c1.7,0.9,4,2.2,4.3,3.7C812.4,475.9,812.4,480.6,812.9,486.6z"/>
	<path class="st0" d="M612.2,477.6c-0.2,2.1,0.2,3.8-0.5,4.9c-0.7,1.2-2.4,2.6-3.5,2.6s-2.9-1.7-3.2-2.9c-0.7-3.2-1-6.5-0.8-9.8
		c0.1-1.4,1.8-3.8,2.6-3.8c1.5,0.1,3.6,1.4,4.2,2.8C612,473.4,612,475.9,612.2,477.6z"/>
	<path class="st0" d="M586.2,480.4c0.4,1.5,1.2,3.1,1.2,4.6c-0.1,1.4-0.8,3.7-1.8,4c-1.4,0.4-4.2-0.2-4.6-1.2
		c-1.1-2.6-1.9-5.7-1.6-8.5c0.2-1.6,2.8-2.9,4.3-4.4c1.3,1.5,2.6,3,3.9,4.5C587.1,479.8,586.6,480.1,586.2,480.4z"/>
	<path class="st0" d="M1435.9,65.3c-0.3,12.6-1.4,13.6-13.8,11.8c-11.3-1.7-11.5-1.7-11.5-13.2c0-8.5,0.5-16.9,1-25.4
		c0.1-1.8,0.6-3.6,1.2-5.3c1.7-4.2,4.7-6.8,9.4-6.8c4.8,0,7.6,3,8.4,7.1C1432.7,44,1434.2,54.7,1435.9,65.3z"/>
	<path class="st0" d="M1492,98.8c-9-0.5-17.9-1-26.9-1.4c-0.8,0-1.9,0.2-2.4-0.3c-1.4-1.3-2.5-2.9-3.8-4.4c1.6-1,3.2-2.8,4.8-2.8
		c11.1,0.3,22.3,1,33.4,1.3c5,0.1,10-0.3,15-0.5c2.5-0.1,5.3,0.1,4.8,3.3c-0.3,1.6-2.7,3.9-4.4,4c-6.8,0.4-13.6,0.2-20.4,0.2
		C1492,98.4,1492,98.6,1492,98.8z"/>
	<path class="st0" d="M961.3,172.1c1.2-10.4,2.3-20.8,3.8-31.2c0.6-4.5,2.3-8.9,7.6-9.2c5.2-0.3,8.4,3.5,9.4,8.1
		c2.9,12.4,5.3,25,7.7,37.5c0.7,3.4,0.7,7,1.3,10.4c0.8,4.2-1.1,6.6-5,7.1c-4.9,0.6-9.9,1.1-14.7,0.5c-5.2-0.6-8.3-4.5-8.8-9.8
		c-0.4-4.5-0.6-9-0.8-13.4C961.7,172.2,961.5,172.1,961.3,172.1z M973.7,140.2c-4.2,15.1-5,30.2-3.6,45.5c0.1,0.9,1.2,2.3,2,2.4
		c3.8,0.5,7.6,0.5,11.9,0.8C981.6,171.5,979.7,155.4,973.7,140.2z"/>
	<path class="st0" d="M952,225c0-3.8-0.1-7.7,0-11.5c0.1-3.5,2-4.5,5.4-3.5c1.8,0.5,3.8,0.7,5.6,0.4c10.9-1.3,21.7-2.8,32.6-4.2
		c3.4-0.5,5.6,0.9,5.9,4.4c0.6,7.1,1.2,14.2,1.7,21.3c0.2,3.3-1.7,4.4-5,4.7c-13.2,1.3-26.4,2.9-39.5,4.6c-3.6,0.5-5.5-0.6-5.6-4.3
		c-0.1-4,0-8,0-12C952.6,225,952.3,225,952,225z M996.1,228.5c-0.4-4.1-0.6-8.4-1.3-12.5c-0.2-1-2.3-2.4-3.3-2.3
		c-9.7,1.3-19.3,2.9-28.9,4.6c-1.1,0.2-2.6,1.9-2.7,3.1c-0.4,3.6-0.1,7.2-0.1,11C972.1,231.1,983.5,229.9,996.1,228.5z"/>
	<path class="st0" d="M1533,462.7c-1.2,1.5-2.1,2.7-3.1,3.7c-6.7,6.3-13.4,12.4-20.1,18.7c-2,1.9-4.1,3.3-6.4,0.8
		c-2.4-2.5-0.7-4.3,1.3-6.2c6.9-6.3,13.6-12.7,20.5-18.9c1.1-1,3.2-1.6,4.8-1.4C1531,459.5,1531.8,461.3,1533,462.7z"/>
	<path class="st0" d="M1511.7,447.7c-1.3,1.4-2.3,2.7-3.4,3.7c-6.2,6-12.5,11.9-18.5,18c-1.9,2-3.6,3.8-6.3,1.7
		c-2.5-1.9-1.5-4.3,0.3-6c6.8-6.7,13.7-13.4,20.8-19.9c1-0.9,3.1-1,4.5-0.7C1510,444.7,1510.6,446.4,1511.7,447.7z"/>
	<path class="st0" d="M1459,457.5c-3.5-1-5.4-3.1-3.4-5.7c5.6-7.2,11.5-14,17.7-20.7c0.8-0.9,3.7,0.2,5.6,0.4
		c-0.3,1.7-0.2,3.8-1.1,5c-5.1,6.3-10.4,12.4-15.7,18.5C1461.1,456.1,1459.8,456.9,1459,457.5z"/>
	<path class="st0" d="M1424.5,426.9c-0.7,1.5-1,2.4-1.5,3.3c-2.8,5.7-5.7,11.2-8.3,17c-1.2,2.6-2.8,4.8-5.5,3.1
		c-1.2-0.8-1.9-4.2-1.3-5.7c2.6-6.3,5.7-12.4,9-18.3c0.7-1.2,3.1-1.9,4.8-2C1422.7,424.1,1423.7,426,1424.5,426.9z"/>
	<path class="st0" d="M1430.3,454.9c-0.6-1.7-2.3-3.9-1.7-5.1c3-6.4,6.4-12.7,10.2-18.8c0.7-1.2,3.6-1,5.5-1.4
		c0.1,1.9,1,4.1,0.3,5.5c-2.6,5.5-5.8,10.8-8.7,16.2c-0.9,1.6-1.5,3.3-2.3,4.9C1432.4,455.8,1431.3,455.3,1430.3,454.9z"/>
	<path class="st0" d="M1428.2,375.8c-1.6-2.3-3.3-3.7-3.2-5c0.1-1.3,1.9-2.5,2.9-3.7c1.3,1.2,3.2,2.3,3.6,3.7
		C1431.8,371.9,1429.8,373.4,1428.2,375.8z"/>
</g>
</svg>
