<?xml version="1.0" encoding="utf-8"?>
<!-- Generator: Adobe Illustrator 19.0.0, SVG Export Plug-In . SVG Version: 6.00 Build 0)  -->
<svg version="1.1" id="Layer_1" xmlns="http://www.w3.org/2000/svg" xmlns:xlink="http://www.w3.org/1999/xlink" x="0px" y="0px"
	 viewBox="0 0 171.7 71.1" style="enable-background:new 0 0 171.7 71.1;" xml:space="preserve">
<style type="text/css">
	.st0{fill:#FFFFFF;}
</style>
<g>
	<path class="st0" d="M5.1,58.7c4.4,4.6,1.9,9.7,10.7,8c6.3-1.2,6.2-5.7,11.2-8.8c5.3-3.3,9.1-2.2,13.5-7.2
		c3.2-3.6,5.8-7.4,8.8-11.2c6.6-8.3,10.8-18,17.7-26.2c1.6-1.9,0.9-4.6,4.2-4.7c2.8-0.1,7.6,7.3,8.8,9.4c2.6,4.4,4.6,9.7,6.7,13.8
		c4.8,9.8,13.2,16.4,24.3,18.1c-1.7-2-4.1-2.7-5.9-4.4c-1.4-1.4-1-3.3-3.2-5c-3.1-2.4-5.4-0.8-7.9-5c4.2-3,8.1-6.3,12.1-9.5
		c3.9-3.1,10.1-4.9,12-10.6c6.8,0.7,16.1,15.6,21.2,21.1c3.9,4.1,5.9,7.2,12,9.5c5.1,1.9,11.2,2,15.8,4.7c-7.2-3-17.4-6.5-21.9-12.6
		c-2.9-3.9-4-6.5-8-9.5c-3.1-2.4-5.4-4.1-7.6-7.3c0.3-0.5,0.8-0.7,1.1-1.3c-1.4-2.2-7.8-8.4-9.6-9.2c-4.7-2.2-5,0.4-10,4.4
		c-3.6,2.9-7.3,6.2-11.2,9c-4.5,3.3-6.4,5.1-10.6,1.8c-7.2-5.5-7.6-16.1-16.6-20.8c-3.4-1.8-1.1-2.9-5.5,0c-2,1.3-3,3.7-4.5,5.5
		c-2.9,3.5-6.3,6.3-5.6,11.2c-5.5,0.7-18,8.9-12.8,15.6C37.6,40.9,32.5,46,26.4,50c-5.2,3.4-15.3,6.6-21.4,8"/>
	<path class="st0" d="M67.1,20.7c-1.5,3.1-4.5,4.8-6.2,7.9c-1.3,2.4-0.6,6.3-1.8,8.2c-1.5,2.4-4.4,2.3-5.9,4.1
		c-2.2,2.6-1.5,4.3-3.3,7.4c-5.3,8.9-14.7,14-22.6,19.2c6.3-0.1,16.4-7.1,21.1-11.5c1.3-1.2,1.9-3.5,3.2-4.6
		c1.4-1.2,3.9-1.4,5.4-2.8c2.5-2.5,3.4-7.9,7-9c3.7-1.2,3.1,1.8,6.5,3.2c2,0.8,3.6-1.2,5.5-0.2c1.2,0.6,1.7,2.9,3,3.7
		c5,3.2,12.1,8.4,18.6,7.9c-5.5-3-11.8-9.7-15.7-14.2c-0.9-1.1-3.7-7.5-4.3-7.7c-3.8-1.3-5.3,3.4-9.1,3.1c0.6-5.5,2.4-10.7-0.8-15.2
		"/>
	<path class="st0" d="M119.1,20.7c-5,1.8-5.8,7.4-9.1,10.2c-3.5,3-9.7,1.8-10.1,7.7c6,0.1,10.7-8.7,15.7-6c0.8-2.3,2.4-3.9,4.7-4.7
		c0.4-2.5,0-4.9-0.6-7.2"/>
	<path class="st0" d="M126.4,33.3c-2.4-0.3-8.3-0.1-10,1.3c-2.8,2.3-4,6.2,1.3,6.1c-0.6,0.8-0.7,3-1.1,3.8c1.1,0.3,2.7,0.2,3.8,0
		c0.4-7.2,9.1-6.1,14-5.3c-1-3.3-4.9-5.4-8.6-5.2"/>
</g>
</svg>
